<?xml version="1.0" ?>
<svg xmlns="http://www.w3.org/2000/svg" version="1.1" width="274" height="360">
	<g fill="none" stroke-linecap="butt">
		<path stroke="#303155FE" d="M 211.00 106.00 L 211.00 106.00 C 211.00 106.00 210.78 106.45 210.50 107.00 C 210.22 107.55 213.60 109.58 218.00 111.50 C 222.40 113.42 226.00 115.45 226.00 116.00 C 226.00 116.55 225.78 117.00 225.50 117.00 C 225.22 117.00 221.40 115.42 217.00 113.50 C 211.16 110.95 208.59 110.27 207.50 111.00 C 206.68 111.55 203.07 114.25 199.50 117.00 C 195.17 120.33 190.17 123.00 184.50 125.00 C 179.82 126.65 176.00 128.45 176.00 129.00 C 176.00 129.55 177.12 130.00 178.50 130.00 C 179.97 130.00 181.83 131.03 183.00 132.50 C 184.45 134.32 185.00 136.50 185.00 140.50 C 185.00 145.30 185.32 146.19 187.50 147.50 C 188.88 148.32 191.57 151.47 193.50 154.50 C 195.43 157.53 198.57 163.82 200.50 168.50 C 202.43 173.18 205.12 181.05 206.50 186.00 C 207.88 190.95 210.57 202.20 212.50 211.00 C 214.43 219.80 217.80 236.22 220.00 247.50 C 222.20 258.77 224.45 269.80 226.00 276.00 L 234.00 277.50 C 238.40 278.32 244.03 279.90 246.50 281.00 C 248.97 282.10 251.90 284.35 253.00 286.00 C 254.10 287.65 255.00 290.12 255.00 291.50 C 255.00 292.88 254.32 294.90 253.50 296.00 C 252.68 297.10 250.20 298.45 248.00 299.00 C 245.80 299.55 239.50 300.00 234.00 300.00 C 228.50 300.00 221.07 299.32 217.50 298.50 C 213.40 297.55 208.41 297.18 204.00 297.50 C 200.15 297.77 194.97 298.90 192.50 300.00 C 188.32 301.86 185.83 302.00 158.00 302.00 C 141.50 302.00 125.30 301.55 122.00 301.00 C 118.70 300.45 114.65 299.77 113.00 299.50 C 110.33 299.06 109.67 299.50 107.00 303.50 C 105.35 305.98 100.40 311.60 96.00 316.00 C 89.56 322.44 86.35 324.78 79.50 328.00 C 72.26 331.41 69.74 332.07 62.50 332.50 C 57.83 332.77 52.42 332.55 50.50 332.00 C 48.58 331.45 46.33 330.10 45.50 329.00 C 44.24 327.33 43.19 327.08 39.00 327.50 C 36.25 327.77 32.20 327.55 30.00 327.00 C 27.49 326.37 25.44 325.07 24.50 323.50 C 23.68 322.12 23.23 319.88 23.50 318.50 C 23.77 317.12 26.02 313.75 28.50 311.00 C 30.98 308.25 35.48 304.20 38.50 302.00 C 43.06 298.69 44.00 297.48 44.00 295.00 C 44.00 293.35 45.58 283.00 47.50 272.00 C 49.42 261.00 51.90 248.40 55.00 236.00 L 53.00 233.50 C 51.67 231.83 51.00 229.50 51.00 226.50 C 51.00 223.57 51.87 220.43 53.50 217.50 C 54.92 214.95 57.73 211.92 60.00 210.50 C 62.20 209.12 66.03 207.10 68.50 206.00 C 70.97 204.90 76.38 203.32 80.50 202.50 C 84.62 201.68 90.25 201.00 93.00 201.00 C 97.67 201.00 98.00 200.83 98.00 198.50 C 98.00 197.12 99.12 190.60 100.50 184.00 C 101.88 177.40 104.35 168.18 106.00 163.50 C 108.77 155.64 108.96 154.25 108.50 145.00 C 108.22 139.37 108.44 133.91 109.00 132.50 C 109.55 131.12 111.12 129.55 112.50 129.00 C 114.17 128.33 116.00 128.33 118.00 129.00 C 119.65 129.55 121.67 130.22 122.50 130.50 C 123.50 130.83 124.00 130.33 124.00 129.00 C 124.00 127.67 123.00 126.67 121.00 126.00 C 119.35 125.45 115.30 123.65 112.00 122.00 C 108.70 120.35 103.53 116.97 100.50 114.50 C 97.47 112.03 94.55 110.00 94.00 110.00 C 93.45 110.00 90.08 111.35 86.50 113.00 C 82.92 114.65 79.33 116.00 78.50 116.00 C 77.17 116.00 77.17 115.83 78.50 114.50 C 79.33 113.67 83.15 111.88 87.00 110.50 C 90.85 109.12 94.00 107.78 94.00 107.50 C 94.00 107.22 93.10 105.42 92.00 103.50 C 90.72 101.26 89.46 100.18 88.50 100.50 C 87.67 100.78 82.95 101.45 78.00 102.00 C 73.05 102.55 68.78 102.78 68.50 102.50 C 68.22 102.22 71.38 101.33 75.50 100.50 C 79.62 99.67 84.35 98.78 86.00 98.50 C 88.86 98.02 88.98 97.81 88.50 94.00 C 88.10 90.78 87.22 89.41 84.00 87.00 C 81.80 85.35 77.75 81.53 75.00 78.50 C 71.80 74.98 68.20 69.22 65.00 62.50 C 62.25 56.72 58.65 48.17 57.00 43.50 C 55.20 38.40 54.00 33.00 54.00 30.00 C 54.00 27.25 54.45 24.10 55.00 23.00 C 55.55 21.90 57.35 20.55 59.00 20.00 C 60.65 19.45 64.25 19.00 67.00 19.00 C 69.75 19.00 76.50 19.90 82.00 21.00 C 87.50 22.10 95.83 24.35 100.50 26.00 C 105.17 27.65 111.92 30.35 115.50 32.00 C 121.98 34.99 122.02 35.00 128.00 33.50 C 131.30 32.67 138.28 31.77 143.50 31.50 C 149.35 31.19 157.04 31.58 163.50 32.50 C 169.28 33.33 175.12 34.45 176.50 35.00 C 178.44 35.78 180.68 35.44 186.50 33.50 C 190.62 32.12 199.40 30.10 206.00 29.00 C 212.60 27.90 222.50 27.00 228.00 27.00 C 233.50 27.00 239.35 27.45 241.00 28.00 C 242.73 28.58 244.63 30.27 245.50 32.00 C 246.32 33.65 247.00 36.12 247.00 37.50 C 247.00 38.88 246.32 42.70 245.50 46.00 C 244.68 49.30 242.20 55.83 240.00 60.50 C 237.80 65.17 233.53 72.60 230.50 77.00 C 227.12 81.92 223.27 86.15 220.50 88.00 C 218.03 89.65 216.00 91.45 216.00 92.00 C 216.00 92.55 215.78 94.35 215.00 99.00 L 223.00 100.00 C 227.40 100.55 231.90 101.45 233.00 102.00 C 234.42 102.71 232.54 102.86 226.50 102.50 C 221.82 102.22 216.88 102.00 213.00 102.00" vector-effect="non-scaling-stroke"/>
		<path stroke="#F9C7BA" d="M 78.00 73.00 L 78.00 73.00 C 78.00 73.00 76.42 71.20 74.50 69.00 C 72.58 66.80 69.42 62.08 67.50 58.50 C 65.58 54.92 62.42 47.73 60.50 42.50 C 58.58 37.27 57.00 31.65 57.00 30.00 C 57.00 28.33 57.89 26.11 59.00 25.00 C 60.52 23.48 62.33 23.00 66.50 23.00 C 69.53 23.00 73.35 23.45 78.00 25.00" vector-effect="non-scaling-stroke"/>
		<path stroke="#5D6793" d="M 90.00 93.00 L 90.00 93.00 C 90.00 93.00 89.78 91.42 89.50 89.50 C 89.18 87.28 88.45 86.00 87.50 86.00 C 86.67 86.00 83.97 84.20 81.50 82.00 C 77.88 78.78 77.10 77.51 78.00 73.00" vector-effect="non-scaling-stroke"/>
		<path stroke="#5D6793" d="M 78.00 73.00 L 78.00 73.00 C 78.00 73.00 80.03 74.80 82.50 77.00 C 84.97 79.20 87.45 81.00 88.00 81.00 C 88.55 81.00 90.80 76.50 97.00 61.00 L 95.00 59.00 C 93.90 57.90 93.22 56.55 93.50 56.00 C 93.78 55.45 95.35 55.00 97.00 55.00 C 98.65 55.00 100.00 54.55 100.00 54.00 C 100.00 53.45 98.42 51.88 96.50 50.50 C 94.58 49.12 93.00 47.33 93.00 46.50 C 93.00 45.31 93.94 45.10 97.50 45.50 C 99.97 45.77 102.67 46.23 103.50 46.50 C 104.33 46.77 105.00 46.55 105.00 46.00 C 105.00 45.45 101.85 42.08 98.00 38.50 C 94.15 34.92 88.08 30.43 78.00 25.00" vector-effect="non-scaling-stroke"/>
		<path stroke="#5D6793" d="M 78.00 25.00 L 78.00 25.00 C 78.00 25.00 78.67 24.55 79.50 24.00 C 80.55 23.30 83.42 23.61 89.00 25.00 C 93.40 26.10 99.92 28.12 103.50 29.50 C 107.08 30.88 112.25 33.12 120.00 37.00" vector-effect="non-scaling-stroke"/>
		<path stroke="#5E6994" d="M 207.00 64.00 L 207.00 64.00 C 207.00 64.00 206.78 64.00 206.50 64.00 C 206.22 64.00 205.78 64.00 205.00 64.00" vector-effect="non-scaling-stroke"/>
		<path stroke="#5E6994" d="M 182.00 38.00 L 182.00 38.00 C 182.00 38.00 184.03 37.10 186.50 36.00 C 188.97 34.90 196.18 33.10 202.50 32.00 C 208.82 30.90 216.47 29.77 219.50 29.50 C 222.69 29.21 225.21 29.42 225.50 30.00 C 225.78 30.55 226.90 31.00 230.00 31.00" vector-effect="non-scaling-stroke"/>
		<path stroke="#F9C8BB" d="M 230.00 31.00 L 230.00 31.00 C 230.00 31.00 232.03 31.00 234.50 31.00 C 237.97 31.00 239.57 31.57 241.50 33.50 C 242.88 34.88 244.00 36.90 244.00 38.00 C 244.00 39.10 243.32 42.48 242.50 45.50 C 241.68 48.52 239.43 54.15 237.50 58.00 C 235.57 61.85 232.20 67.25 230.00 70.00 C 227.80 72.75 223.97 76.58 221.50 78.50 C 219.03 80.42 216.10 82.00 215.00 82.00 C 213.39 82.00 212.41 80.33 210.00 73.50 C 208.35 68.83 207.00 64.78 207.00 64.00" vector-effect="non-scaling-stroke"/>
		<path stroke="#F9C8BB" d="M 207.00 64.00 L 207.00 64.00 C 207.00 64.00 207.68 63.33 208.50 62.50 C 209.32 61.67 209.78 60.33 209.50 59.50 C 209.22 58.67 207.88 58.00 206.50 58.00 C 205.12 58.00 204.00 57.55 204.00 57.00 C 204.00 56.45 205.80 54.88 208.00 53.50 C 210.20 52.12 212.00 50.55 212.00 50.00 C 212.00 49.38 209.50 49.19 205.50 49.50 C 200.17 49.91 199.00 49.73 199.00 48.50 C 199.00 47.67 201.47 44.98 204.50 42.50 C 207.88 39.73 213.08 36.85 218.00 35.00 C 222.40 33.35 226.90 31.77 230.00 31.00" vector-effect="non-scaling-stroke"/>
		<path stroke="#AFB6D4" d="M 182.00 38.00 L 182.00 38.00 C 182.00 38.00 184.03 39.35 186.50 41.00 C 188.97 42.65 192.57 46.02 194.50 48.50 C 196.43 50.98 199.57 55.48 205.00 64.00" vector-effect="non-scaling-stroke"/>
		<path stroke="#AFB6D4" d="M 205.00 64.00 L 205.00 64.00 C 205.00 64.00 205.68 65.58 206.50 67.50 C 207.32 69.42 208.00 71.67 208.00 72.50 C 208.00 73.33 207.55 74.00 206.00 74.00" vector-effect="non-scaling-stroke"/>
		<path stroke="#AFB6D4" d="M 205.00 78.00 L 205.00 78.00 C 205.00 78.00 205.45 77.55 206.00 77.00 C 206.55 76.45 207.68 76.00 208.50 76.00 C 209.32 76.00 210.45 77.35 211.00 79.00 C 211.55 80.65 212.68 83.80 213.50 86.00 C 214.66 89.10 214.78 91.01 213.00 99.00 L 193.00 99.00 L 201.50 100.00 C 206.18 100.55 210.68 101.22 213.00 102.00" vector-effect="non-scaling-stroke"/>
		<path stroke="#AFB6D4" d="M 213.00 102.00 L 213.00 102.00 C 213.00 102.00 213.00 102.45 213.00 103.00 C 213.00 103.55 212.55 104.45 211.00 106.00" vector-effect="non-scaling-stroke"/>
		<path stroke="#AFB6D4" d="M 211.00 106.00 L 211.00 106.00 C 211.00 106.00 211.22 105.10 211.50 104.00 C 211.94 102.22 211.72 102.28 209.50 104.50 C 207.17 106.83 206.67 106.93 202.00 106.00 C 199.25 105.45 196.10 104.78 195.00 104.50 C 193.90 104.22 193.00 104.45 193.00 105.00 C 193.00 105.55 194.57 106.22 196.50 106.50 C 198.43 106.78 201.12 107.45 202.50 108.00 C 204.81 108.92 204.88 109.15 203.50 111.00 C 202.68 112.10 199.30 114.80 196.00 117.00 C 192.70 119.20 186.18 122.35 173.00 127.00" vector-effect="non-scaling-stroke"/>
		<path stroke="#AFB6D4" d="M 127.00 126.00 L 127.00 126.00 C 127.00 126.00 123.85 124.65 120.00 123.00 C 116.15 121.35 111.20 118.88 109.00 117.50 C 106.80 116.12 103.65 113.88 102.00 112.50 C 100.35 111.12 99.00 109.55 99.00 109.00 C 99.00 108.45 101.25 107.55 104.00 107.00 C 106.75 106.45 109.67 105.55 110.50 105.00 C 111.75 104.17 111.67 104.00 110.00 104.00 C 108.90 104.00 105.53 104.67 102.50 105.50 C 97.26 106.93 96.90 106.90 95.00 105.00 C 93.90 103.90 93.00 102.33 93.00 101.50 C 93.00 100.43 94.44 99.86 98.00 99.50 C 100.75 99.22 105.03 99.00 112.00 99.00 L 108.00 98.00 C 105.80 97.45 101.53 97.22 98.50 97.50 C 95.47 97.78 92.33 97.78 91.50 97.50 C 90.67 97.22 90.00 96.10 90.00 93.00" vector-effect="non-scaling-stroke"/>
		<path stroke="#AFB6D4" d="M 90.00 93.00 L 90.00 93.00 C 90.00 93.00 90.00 90.97 90.00 88.50 C 90.00 86.03 90.67 82.20 91.50 80.00 C 92.33 77.80 93.67 74.42 94.50 72.50 C 95.33 70.58 97.35 66.08 99.00 62.50 C 100.65 58.92 104.03 53.30 106.50 50.00 C 108.97 46.70 113.03 42.42 120.00 37.00" vector-effect="non-scaling-stroke"/>
		<path stroke="#AFB6D4" d="M 120.00 37.00 L 120.00 37.00 C 120.00 37.00 123.60 36.33 128.00 35.50 C 132.40 34.67 141.40 34.00 148.00 34.00 C 155.67 34.00 163.97 34.72 182.00 38.00" vector-effect="non-scaling-stroke"/>
		<path stroke="#515E89" d="M 117.00 53.50 C 118.94 52.53 121.59 52.18 124.50 52.50 C 127.50 52.83 129.83 53.83 134.00 58.00 L 131.50 57.50 C 130.12 57.23 127.20 56.77 125.00 56.50 C 122.80 56.23 119.20 56.45 117.00 57.00 C 114.80 57.55 112.33 58.23 111.50 58.50 C 110.50 58.83 110.67 58.33 112.00 57.00 C 113.10 55.90 115.35 54.33 117.00 53.50" vector-effect="non-scaling-stroke"/>
		<path stroke="#F5F6F1" d="M 169.00 128.00 L 169.00 128.00 C 169.00 128.00 168.78 128.00 168.50 128.00 C 168.22 128.00 167.78 128.00 167.00 128.00" vector-effect="non-scaling-stroke"/>
		<path stroke="#F5F6F1" d="M 134.00 126.00 L 134.00 126.00 C 134.00 126.00 131.97 124.65 129.50 123.00 C 127.03 121.35 123.88 118.42 122.50 116.50 C 121.12 114.58 119.55 111.65 119.00 110.00 C 118.25 107.75 118.38 106.12 119.50 103.50 C 120.42 101.35 123.69 97.88 128.00 94.50 C 132.08 91.29 136.67 86.50 139.00 83.00 C 141.20 79.70 144.35 74.08 146.00 70.50 C 147.65 66.92 149.68 61.75 150.50 59.00 C 151.32 56.25 152.45 53.55 153.00 53.00 C 153.67 52.33 154.17 52.83 154.50 54.50 C 154.78 55.88 156.12 60.83 157.50 65.50 C 158.88 70.17 161.12 76.25 162.50 79.00 C 163.88 81.75 167.70 86.70 171.00 90.00 C 174.30 93.30 178.80 97.58 181.00 99.50 C 183.20 101.42 185.22 104.12 185.50 105.50 C 185.78 106.88 185.55 109.80 185.00 112.00 C 184.31 114.75 182.28 117.72 173.00 127.00" vector-effect="non-scaling-stroke"/>
		<path stroke="#56618D" d="M 176.50 55.50 C 177.32 54.67 179.35 54.00 181.00 54.00 C 182.65 54.00 186.03 54.90 188.50 56.00 C 190.97 57.10 193.68 58.90 194.50 60.00 C 195.32 61.10 195.55 61.77 195.00 61.50 C 194.45 61.23 191.53 60.33 188.50 59.50 C 185.28 58.62 180.93 58.21 178.00 58.50 C 175.00 58.80 173.00 58.60 173.00 58.00 C 173.00 57.45 173.45 57.00 174.00 57.00 C 174.55 57.00 175.68 56.33 176.50 55.50" vector-effect="non-scaling-stroke"/>
		<path stroke="#131B27" d="M 115.00 88.00 L 115.00 88.00 C 115.00 88.00 114.55 88.22 114.00 88.50 C 113.45 88.78 111.20 87.88 109.00 86.50 C 106.70 85.06 104.15 82.30 101.00 76.00" vector-effect="non-scaling-stroke"/>
		<path stroke="#131B27" d="M 100.00 70.00 L 100.00 70.00 C 100.00 70.00 104.50 69.78 110.00 69.50 C 115.50 69.22 122.47 69.45 125.50 70.00 C 128.53 70.55 132.57 71.90 134.50 73.00 C 136.43 74.10 137.78 75.45 137.00 77.00" vector-effect="non-scaling-stroke"/>
		<path stroke="#596580" d="M 100.00 70.00 L 100.00 70.00 C 100.00 70.00 99.55 70.45 99.00 71.00 C 98.33 71.67 98.50 72.67 101.00 76.00" vector-effect="non-scaling-stroke"/>
		<path stroke="#596580" d="M 101.00 76.00 L 101.00 76.00 C 101.00 76.00 100.10 74.88 99.00 73.50 C 97.90 72.12 97.22 70.78 97.50 70.50 C 97.78 70.22 98.45 70.00 100.00 70.00" vector-effect="non-scaling-stroke"/>
		<path stroke="#111826" d="M 206.00 74.00 L 206.00 74.00 C 206.00 74.00 206.22 74.45 206.50 75.00 C 206.78 75.55 206.55 76.45 205.00 78.00" vector-effect="non-scaling-stroke"/>
		<path stroke="#111826" d="M 205.00 78.00 L 205.00 78.00 C 205.00 78.00 203.65 80.03 202.00 82.50 C 200.35 84.97 197.65 87.90 196.00 89.00 C 194.35 90.10 192.10 90.78 189.00 90.00" vector-effect="non-scaling-stroke"/>
		<path stroke="#111826" d="M 168.00 78.00 L 168.00 78.00 C 168.00 78.00 167.55 77.78 167.00 77.50 C 166.33 77.17 166.33 76.67 167.00 76.00 C 167.55 75.45 170.25 74.33 173.00 73.50 C 175.75 72.67 180.70 72.00 184.00 72.00 C 187.30 72.00 193.60 72.45 206.00 74.00" vector-effect="non-scaling-stroke"/>
		<path stroke="#C3F0D9" d="M 137.00 77.00 L 137.00 77.00 C 137.00 77.00 137.00 77.90 137.00 79.00 C 137.00 80.17 135.33 82.25 133.00 84.00 C 130.80 85.65 127.20 87.45 125.00 88.00 C 122.80 88.55 119.65 88.78 115.00 88.00" vector-effect="non-scaling-stroke"/>
		<path stroke="#C3F0D9" d="M 115.00 88.00 L 115.00 88.00 C 115.00 88.00 114.10 87.78 113.00 87.50 C 111.90 87.22 109.65 85.42 108.00 83.50 C 106.35 81.58 104.78 78.88 104.50 77.50 C 104.22 76.12 104.45 74.55 105.00 74.00 C 105.55 73.45 108.47 73.00 117.00 73.00 L 116.50 76.50 C 116.12 79.12 116.50 80.50 118.00 82.00 C 119.10 83.10 121.12 84.22 122.50 84.50 C 123.88 84.78 126.12 84.55 127.50 84.00 C 128.88 83.45 130.22 82.33 130.50 81.50 C 130.78 80.67 130.55 79.55 130.00 79.00 C 129.45 78.45 129.22 77.33 129.50 76.50 C 129.85 75.45 130.89 75.15 133.00 75.50 C 134.65 75.78 136.22 76.22 137.00 77.00" vector-effect="non-scaling-stroke"/>
		<path stroke="#C7F2DA" d="M 189.00 90.00 L 189.00 90.00 C 189.00 90.00 186.97 90.22 184.50 90.50 C 181.59 90.82 178.94 90.47 177.00 89.50 C 175.35 88.67 172.20 86.42 170.00 84.50 C 167.80 82.58 166.00 80.55 166.00 80.00 C 166.00 79.45 166.45 78.78 168.00 78.00" vector-effect="non-scaling-stroke"/>
		<path stroke="#C7F2DA" d="M 168.00 78.00 L 168.00 78.00 C 168.00 78.00 169.57 77.78 171.50 77.50 C 174.83 77.02 175.00 77.14 175.00 80.00 C 175.00 81.83 175.78 83.58 177.00 84.50 C 178.10 85.33 180.57 86.00 182.50 86.00 C 184.67 86.00 186.76 85.24 188.00 84.00 C 189.11 82.89 190.00 80.67 190.00 79.00 C 190.00 76.04 190.06 76.01 194.50 76.50 C 196.97 76.78 199.45 77.45 200.00 78.00 C 200.67 78.67 200.67 80.00 200.00 82.00 C 199.45 83.65 197.43 86.12 195.50 87.50 C 193.57 88.88 191.32 90.00 189.00 90.00" vector-effect="non-scaling-stroke"/>
		<path stroke="#E78E7B" d="M 147.00 108.00 L 147.00 108.00 C 147.00 108.00 147.90 106.88 149.00 105.50 C 150.10 104.12 151.00 102.55 151.00 102.00 C 151.00 101.45 149.43 99.65 147.50 98.00 C 145.43 96.22 144.20 94.39 144.50 93.50 C 144.78 92.67 146.57 91.78 148.50 91.50 C 150.43 91.22 153.35 91.22 155.00 91.50 C 156.65 91.78 158.90 92.22 160.00 92.50 C 161.10 92.78 162.00 93.67 162.00 94.50 C 162.00 95.33 160.20 97.12 158.00 98.50 C 155.80 99.88 154.00 101.67 154.00 102.50 C 154.00 103.33 154.90 104.90 158.00 108.00" vector-effect="non-scaling-stroke"/>
		<path stroke="#111216" d="M 158.00 108.00 L 158.00 108.00 C 158.00 108.00 159.57 108.22 161.50 108.50 C 163.97 108.85 165.88 108.41 168.00 107.00 C 169.65 105.90 171.22 105.00 171.50 105.00 C 171.78 105.00 172.00 105.67 172.00 106.50 C 172.00 107.33 170.88 108.67 169.50 109.50 C 168.12 110.33 165.20 111.00 163.00 111.00 C 160.80 111.00 157.43 110.10 155.50 109.00 C 152.39 107.22 151.83 107.17 150.50 108.50 C 149.68 109.33 147.43 110.22 145.50 110.50 C 143.50 110.79 140.50 110.36 138.50 109.50 C 136.57 108.67 134.78 107.33 134.50 106.50 C 134.22 105.67 134.22 104.78 134.50 104.50 C 134.78 104.22 135.90 104.90 137.00 106.00 C 138.33 107.33 140.33 108.00 147.00 108.00" vector-effect="non-scaling-stroke"/>
		<path stroke="#111216" d="M 147.00 108.00 L 147.00 108.00 C 147.00 108.00 148.35 106.88 153.00 103.00 L 158.00 108.00" vector-effect="non-scaling-stroke"/>
		<path stroke="#3C457C" d="M 127.00 126.00 L 127.00 126.00 C 127.00 126.00 127.22 126.00 127.50 126.00 C 127.78 126.00 128.68 126.22 131.00 127.00" vector-effect="non-scaling-stroke"/>
		<path stroke="#3C457C" d="M 134.00 137.00 L 134.00 137.00 C 134.00 137.00 132.65 136.32 131.00 135.50 C 129.35 134.68 127.78 133.55 127.50 133.00 C 127.22 132.45 127.00 130.65 127.00 126.00" vector-effect="non-scaling-stroke"/>
		<path stroke="#838EBD" d="M 134.00 126.00 L 134.00 126.00 C 134.00 126.00 136.47 126.67 139.50 127.50 C 142.53 128.32 147.03 129.22 149.50 129.50 C 151.97 129.78 156.93 129.55 167.00 128.00" vector-effect="non-scaling-stroke"/>
		<path stroke="#838EBD" d="M 167.00 128.00 L 167.00 128.00 C 167.00 128.00 167.00 129.12 167.00 130.50 C 167.00 131.88 166.32 133.45 165.50 134.00 C 164.68 134.55 162.65 135.68 158.00 138.00" vector-effect="non-scaling-stroke"/>
		<path stroke="#838EBD" d="M 155.00 141.00 L 155.00 141.00 C 155.00 141.00 154.78 141.00 154.00 141.00" vector-effect="non-scaling-stroke"/>
		<path stroke="#838EBD" d="M 139.00 139.00 L 139.00 139.00 C 139.00 139.00 138.10 138.55 137.00 138.00 C 135.90 137.45 134.78 137.00 134.00 137.00" vector-effect="non-scaling-stroke"/>
		<path stroke="#838EBD" d="M 134.00 137.00 L 134.00 137.00 C 134.00 137.00 133.78 135.43 133.50 133.50 C 133.22 131.57 132.55 129.32 131.00 127.00" vector-effect="non-scaling-stroke"/>
		<path stroke="#838EBD" d="M 131.00 127.00 L 131.00 127.00 C 131.00 127.00 131.45 127.00 132.00 127.00 C 132.55 127.00 133.22 126.78 134.00 126.00" vector-effect="non-scaling-stroke"/>
		<path stroke="#6866A4" d="M 173.00 127.00 L 173.00 127.00 C 173.00 127.00 173.00 127.90 173.00 129.00 C 173.00 130.10 172.55 131.00 172.00 131.00 C 171.45 131.00 170.55 130.32 169.00 128.00" vector-effect="non-scaling-stroke"/>
		<path stroke="#6866A4" d="M 169.00 128.00 L 169.00 128.00 C 169.00 128.00 169.00 127.78 169.00 127.50 C 169.00 127.22 169.90 127.00 173.00 127.00" vector-effect="non-scaling-stroke"/>
		<path stroke="#5826A2" d="M 112.00 134.50 C 112.71 132.00 113.57 131.00 115.00 131.00 C 116.10 131.00 121.28 133.03 126.50 135.50 C 131.72 137.97 136.45 140.68 137.00 141.50 C 137.55 142.32 137.78 143.90 137.50 145.00 C 137.04 146.82 136.39 146.96 130.00 146.50 C 124.22 146.09 123.00 146.26 123.00 147.50 C 123.00 148.32 123.67 149.22 124.50 149.50 C 125.33 149.78 128.47 150.22 131.50 150.50 C 136.83 150.98 137.00 151.09 137.00 154.00 C 137.00 156.59 136.39 157.27 132.50 159.00 C 130.03 160.10 126.42 161.68 124.50 162.50 C 122.58 163.32 119.65 164.00 118.00 164.00 C 115.56 164.00 114.81 163.44 114.00 161.00 C 113.45 159.35 112.55 153.50 112.00 148.00 C 111.33 141.33 111.33 136.83 112.00 134.50" vector-effect="non-scaling-stroke"/>
		<path stroke="#5724A0" d="M 155.00 141.00 L 155.00 141.00 C 155.00 141.00 155.45 140.32 156.00 139.50 C 156.55 138.68 157.22 138.00 158.00 138.00" vector-effect="non-scaling-stroke"/>
		<path stroke="#5724A0" d="M 158.00 138.00 L 158.00 138.00 C 158.00 138.00 158.90 138.22 160.00 138.50 C 161.14 138.79 163.71 137.93 166.00 136.50 C 168.20 135.12 172.03 133.78 174.50 133.50 C 176.97 133.22 179.68 133.45 180.50 134.00 C 181.58 134.72 182.00 136.83 182.00 141.50 C 182.00 145.07 181.55 150.93 181.00 154.50 C 180.45 158.07 179.32 162.12 178.50 163.50 C 177.68 164.88 176.10 166.00 175.00 166.00 C 173.90 166.00 170.75 164.88 168.00 163.50 C 165.25 162.12 162.32 160.55 161.50 160.00 C 160.68 159.45 159.10 158.78 158.00 158.50 C 156.48 158.12 156.12 157.40 156.50 155.50 C 156.78 154.12 157.22 152.78 157.50 152.50 C 157.78 152.22 160.47 151.55 163.50 151.00 C 166.53 150.45 169.45 149.78 170.00 149.50 C 170.59 149.20 170.39 148.39 169.50 147.50 C 168.39 146.39 166.57 146.13 162.50 146.50 C 159.17 146.80 157.00 146.61 157.00 146.00 C 157.00 145.45 156.55 144.10 155.00 141.00" vector-effect="non-scaling-stroke"/>
		<path stroke="#A5A9D3" d="M 154.00 141.00 L 154.00 141.00 C 154.00 141.00 150.62 140.78 146.50 140.50 C 142.38 140.22 139.00 139.78 139.00 139.00" vector-effect="non-scaling-stroke"/>
		<path stroke="#A5A9D3" d="M 139.00 139.00 L 139.00 139.00 C 139.00 139.00 141.25 138.78 144.00 138.50 C 146.75 138.22 150.35 138.45 152.00 139.00 C 153.65 139.55 154.78 140.22 154.00 141.00" vector-effect="non-scaling-stroke"/>
		<path stroke="#531F98" d="M 140.50 144.00 C 140.79 143.41 143.48 143.21 153.00 144.00 L 153.50 148.00 C 153.78 150.20 153.78 153.12 153.50 154.50 C 153.11 156.46 152.25 157.11 149.50 157.50 C 147.57 157.78 144.88 157.78 143.50 157.50 C 141.24 157.05 140.95 156.42 140.50 151.00 C 140.22 147.70 140.22 144.55 140.50 144.00" vector-effect="non-scaling-stroke"/>
		<path stroke="#B0B7D5" d="M 200.00 292.00 L 200.00 292.00 C 200.00 292.00 199.32 292.90 198.50 294.00 C 197.68 295.10 194.97 296.68 192.50 297.50 C 190.03 298.32 185.07 299.23 175.00 300.00" vector-effect="non-scaling-stroke"/>
		<path stroke="#B0B7D5" d="M 109.00 297.00 L 109.00 297.00 C 109.00 297.00 106.97 299.70 104.50 303.00 C 102.03 306.30 97.08 311.93 93.50 315.50 C 89.31 319.69 84.51 323.24 80.00 325.50 C 76.15 327.43 71.88 329.00 70.50 329.00 C 69.12 329.00 67.78 328.55 67.50 328.00 C 67.22 327.45 67.67 325.65 68.50 324.00 C 69.83 321.33 69.83 321.11 68.50 322.00 C 67.67 322.55 66.33 324.57 65.50 326.50 C 64.26 329.39 63.48 330.00 61.00 330.00 C 59.35 330.00 57.77 329.77 57.50 329.50 C 57.23 329.23 57.45 327.65 58.00 326.00 C 58.55 324.35 59.23 322.32 59.50 321.50 C 59.77 320.68 59.55 320.23 59.00 320.50 C 58.45 320.77 57.10 323.02 56.00 325.50 C 54.24 329.45 53.76 329.88 52.00 329.00 C 50.90 328.45 49.77 326.88 49.50 325.50 C 49.23 324.12 49.45 322.10 50.00 321.00 C 50.55 319.90 55.50 315.85 61.00 312.00 C 66.50 308.15 72.58 302.98 74.50 300.50 C 76.42 298.02 81.38 288.35 93.00 262.00" vector-effect="non-scaling-stroke"/>
		<path stroke="#B0B7D5" d="M 165.00 165.00 L 165.00 165.00 C 165.00 165.00 166.57 165.68 168.50 166.50 C 170.43 167.32 173.80 168.00 176.00 168.00 C 179.33 168.00 180.17 167.58 181.00 165.50 C 181.55 164.12 182.45 159.85 183.00 156.00 C 183.55 152.15 184.45 149.00 185.00 149.00 C 185.55 149.00 187.35 150.57 189.00 152.50 C 190.65 154.43 193.35 158.70 195.00 162.00 C 196.65 165.30 199.57 172.72 201.50 178.50 C 203.43 184.28 206.35 194.40 208.00 201.00 C 209.65 207.60 213.03 223.12 215.50 235.50 C 217.97 247.88 220.68 262.50 223.00 278.00 L 228.50 278.50 C 231.53 278.77 236.93 279.90 240.50 281.00 C 244.07 282.10 248.12 284.12 249.50 285.50 C 250.88 286.88 252.00 289.12 252.00 290.50 C 252.00 291.88 251.78 293.68 251.50 294.50 C 251.22 295.32 250.32 296.00 249.50 296.00 C 248.68 296.00 247.78 294.88 247.50 293.50 C 247.22 292.12 246.10 289.88 245.00 288.50 C 243.90 287.12 242.32 286.00 241.50 286.00 C 240.39 286.00 240.65 286.78 242.50 289.00 C 244.22 291.06 244.84 292.78 244.50 294.50 C 244.10 296.50 243.40 297.00 241.00 297.00 C 239.22 297.00 237.80 296.39 237.50 295.50 C 237.22 294.68 235.88 292.65 234.50 291.00 C 233.12 289.35 231.55 288.00 231.00 288.00 C 230.45 288.00 231.12 289.57 232.50 291.50 C 233.88 293.43 234.78 295.68 234.50 296.50 C 234.22 297.32 233.32 298.00 232.50 298.00 C 231.68 298.00 228.53 297.55 220.00 296.00" vector-effect="non-scaling-stroke"/>
		<path stroke="#F6F6F1" d="M 165.00 165.00 L 165.00 165.00 C 165.00 165.00 165.22 166.12 165.50 167.50 C 165.78 168.88 166.45 180.57 167.00 193.50 C 167.90 214.62 168.35 218.57 171.50 232.50 C 173.43 241.03 174.78 248.45 174.00 250.00" vector-effect="non-scaling-stroke"/>
		<path stroke="#F6F6F1" d="M 133.00 162.00 L 133.00 162.00 C 133.00 162.00 133.90 161.55 135.00 161.00 C 136.10 160.45 141.05 160.00 146.00 160.00 C 153.60 160.00 155.78 160.39 165.00 165.00" vector-effect="non-scaling-stroke"/>
		<path stroke="#5D689A" d="M 99.00 203.00 L 99.00 203.00 C 99.00 203.00 100.12 197.82 101.50 191.50 C 102.88 185.18 104.45 178.20 105.00 176.00 C 105.55 173.80 106.67 169.53 107.50 166.50 C 108.33 163.47 109.45 161.00 110.00 161.00 C 110.55 161.00 111.00 161.68 111.00 162.50 C 111.00 163.32 111.67 164.68 112.50 165.50 C 113.33 166.32 115.12 167.00 116.50 167.00 C 118.94 167.00 119.01 167.20 119.50 176.00 C 119.88 182.90 120.93 187.80 124.00 197.00 C 127.42 207.27 127.93 209.87 127.00 221.00" vector-effect="non-scaling-stroke"/>
		<path stroke="#B3BAD8" d="M 133.00 162.00 L 133.00 162.00 C 133.00 162.00 132.32 163.80 131.50 166.00 C 130.40 168.92 130.13 172.42 130.50 179.00 C 130.81 184.66 132.11 191.90 134.00 198.50 C 136.13 205.97 137.29 212.90 139.00 236.00" vector-effect="non-scaling-stroke"/>
		<path stroke="#B3BAD8" d="M 133.00 232.00 L 133.00 232.00 C 133.00 232.00 133.22 228.85 133.50 225.00 C 133.84 220.24 133.52 216.56 132.50 213.50 C 131.68 211.03 128.97 203.38 126.50 196.50 C 122.50 185.39 122.00 183.06 122.00 175.50 C 122.00 170.82 122.45 166.55 123.00 166.00 C 123.55 165.45 126.03 164.32 133.00 162.00" vector-effect="non-scaling-stroke"/>
		<path stroke="#596593" d="M 220.00 296.00 L 220.00 296.00 C 220.00 296.00 219.10 296.00 218.00 296.00 C 216.90 296.00 215.10 295.55 214.00 295.00 C 212.90 294.45 210.20 292.43 204.00 287.00 L 200.00 292.00" vector-effect="non-scaling-stroke"/>
		<path stroke="#596593" d="M 200.00 292.00 L 200.00 292.00 C 200.00 292.00 200.22 290.65 200.50 289.00 C 200.84 286.97 198.91 279.56 194.50 266.00 C 190.93 255.00 185.97 237.90 183.50 228.00 C 181.03 218.10 178.55 206.40 178.00 202.00 C 177.45 197.60 177.22 193.78 177.50 193.50 C 177.78 193.22 179.12 197.72 180.50 203.50 C 181.88 209.28 185.70 222.10 189.00 232.00 C 192.30 241.90 196.80 254.72 199.00 260.50 C 201.20 266.27 204.35 274.15 206.00 278.00 C 207.65 281.85 209.68 286.12 210.50 287.50 C 211.32 288.88 213.80 291.35 220.00 296.00" vector-effect="non-scaling-stroke"/>
		<path stroke="#AEB6D5" d="M 99.00 203.00 L 99.00 203.00 C 99.00 203.00 101.47 203.22 104.50 203.50 C 107.53 203.78 111.80 204.90 114.00 206.00 C 116.20 207.10 119.80 210.03 122.00 212.50 C 124.20 214.97 126.00 217.90 126.00 221.00" vector-effect="non-scaling-stroke"/>
		<path stroke="#AEB6D5" d="M 54.00 229.00 L 54.00 229.00 C 54.00 229.00 54.00 227.20 54.00 225.00 C 54.00 222.80 54.90 219.43 56.00 217.50 C 57.10 215.57 60.25 212.65 63.00 211.00 C 65.75 209.35 71.60 207.10 76.00 206.00 C 80.40 204.90 87.38 203.78 99.00 203.00" vector-effect="non-scaling-stroke"/>
		<path stroke="#BBC5E0" d="M 128.00 222.00 L 128.00 222.00 C 128.00 222.00 128.22 220.88 128.50 219.50 C 128.78 218.12 129.45 216.78 130.00 216.50 C 130.55 216.22 131.22 217.12 131.50 218.50 C 131.78 219.88 131.55 223.47 130.00 232.00" vector-effect="non-scaling-stroke"/>
		<path stroke="#485381" d="M 126.00 221.00 L 126.00 221.00 C 126.00 221.00 126.22 221.00 127.00 221.00" vector-effect="non-scaling-stroke"/>
		<path stroke="#485381" d="M 127.00 221.00 L 127.00 221.00 C 127.00 221.00 126.78 221.45 126.50 222.00 C 126.22 222.55 126.22 223.00 126.50 223.00 C 126.78 223.00 127.22 222.78 128.00 222.00" vector-effect="non-scaling-stroke"/>
		<path stroke="#485381" d="M 128.00 222.00 L 128.00 222.00 C 128.00 222.00 127.55 222.68 127.00 223.50 C 126.45 224.32 124.20 225.22 122.00 225.50 C 119.80 225.78 117.78 226.45 117.50 227.00 C 117.22 227.55 119.25 228.90 122.00 230.00 C 124.75 231.10 127.67 232.00 130.00 232.00" vector-effect="non-scaling-stroke"/>
		<path stroke="#485381" d="M 130.00 232.00 L 130.00 232.00 C 130.00 232.00 130.00 232.22 130.00 232.50 C 130.00 232.78 130.68 232.78 133.00 232.00" vector-effect="non-scaling-stroke"/>
		<path stroke="#485381" d="M 133.00 232.00 L 133.00 232.00 C 133.00 232.00 133.22 232.45 133.50 233.00 C 133.78 233.55 135.12 234.45 139.00 236.00" vector-effect="non-scaling-stroke"/>
		<path stroke="#485381" d="M 139.00 236.00 L 139.00 236.00 C 139.00 236.00 143.28 237.35 148.50 239.00 C 153.72 240.65 161.60 243.80 174.00 250.00" vector-effect="non-scaling-stroke"/>
		<path stroke="#485381" d="M 174.00 250.00 L 174.00 250.00 C 174.00 250.00 176.03 251.12 178.50 252.50 C 180.97 253.88 182.10 254.78 181.00 254.50 C 179.90 254.22 175.18 252.43 170.50 250.50 C 165.82 248.57 154.80 244.75 146.00 242.00 C 131.52 237.47 129.10 237.00 111.00 237.00 L 105.50 242.50 C 102.26 245.74 98.56 250.88 93.00 262.00" vector-effect="non-scaling-stroke"/>
		<path stroke="#485381" d="M 93.00 262.00 L 93.00 262.00 C 93.00 262.00 91.88 262.23 90.50 262.50 C 88.21 262.96 88.00 262.70 88.00 259.50 C 88.00 257.57 88.45 255.55 90.00 254.00" vector-effect="non-scaling-stroke"/>
		<path stroke="#485381" d="M 84.00 225.00 L 84.00 225.00 C 84.00 225.00 84.90 223.43 86.00 221.50 C 87.24 219.33 88.76 218.00 90.00 218.00 C 91.10 218.00 98.75 218.90 107.00 220.00 C 115.25 221.10 122.90 221.78 126.00 221.00" vector-effect="non-scaling-stroke"/>
		<path stroke="#303963" d="M 84.00 225.00 L 84.00 225.00 C 84.00 225.00 84.45 224.78 85.00 224.50 C 85.55 224.22 86.45 224.22 88.00 225.00" vector-effect="non-scaling-stroke"/>
		<path stroke="#303963" d="M 57.00 238.00 L 57.00 238.00 C 57.00 238.00 56.77 236.43 56.50 234.50 C 56.23 232.57 55.55 230.55 54.00 229.00" vector-effect="non-scaling-stroke"/>
		<path stroke="#303963" d="M 54.00 229.00 L 54.00 229.00 C 54.00 229.00 54.45 229.00 55.00 229.00 C 55.55 229.00 56.45 227.65 57.00 226.00 C 57.55 224.35 58.67 222.55 59.50 222.00 C 60.50 221.33 61.00 221.33 61.00 222.00 C 61.00 222.55 60.55 224.35 60.00 226.00 C 59.45 227.65 59.23 230.12 59.50 231.50 C 59.90 233.50 60.60 234.00 63.00 234.00 C 65.53 234.00 66.00 233.61 66.00 231.50 C 66.00 230.12 66.90 227.20 68.00 225.00 C 69.10 222.80 70.45 221.00 71.00 221.00 C 71.58 221.00 71.38 222.67 70.50 225.00 C 69.67 227.20 69.22 230.12 69.50 231.50 C 69.78 232.88 70.67 234.00 71.50 234.00 C 72.33 234.00 74.35 233.32 76.00 232.50 C 77.65 231.68 80.12 229.65 84.00 225.00" vector-effect="non-scaling-stroke"/>
		<path stroke="#AFB6D5" d="M 90.00 254.00 L 90.00 254.00 C 90.00 254.00 89.55 253.10 89.00 252.00 C 88.20 250.40 87.90 250.30 87.50 251.50 C 87.22 252.32 84.30 259.98 81.00 268.50 C 77.70 277.02 72.53 289.18 69.50 295.50 C 64.13 306.73 63.82 307.13 56.50 312.50 C 52.38 315.52 48.10 319.12 47.00 320.50 C 45.90 321.88 44.55 322.77 44.00 322.50 C 43.45 322.23 43.23 320.88 43.50 319.50 C 43.77 318.12 43.77 317.00 43.50 317.00 C 43.23 317.00 42.10 318.80 41.00 321.00 C 39.44 324.11 38.56 324.89 37.00 324.50 C 35.42 324.10 35.00 323.17 35.00 316.00 L 32.50 318.50 C 31.12 319.88 30.00 321.68 30.00 322.50 C 30.00 323.32 29.77 324.00 29.50 324.00 C 29.23 324.00 28.32 323.77 27.50 323.50 C 26.68 323.23 26.00 321.88 26.00 320.50 C 26.00 319.12 27.57 315.98 29.50 313.50 C 31.43 311.02 35.70 306.98 39.00 304.50 C 43.91 300.82 45.09 299.36 45.50 296.50 C 45.77 294.57 47.58 284.23 49.50 273.50 C 51.42 262.77 53.90 250.40 57.00 238.00" vector-effect="non-scaling-stroke"/>
		<path stroke="#AFB6D5" d="M 57.00 238.00 L 57.00 238.00 C 57.00 238.00 59.92 238.00 63.50 238.00 C 68.30 238.00 71.44 237.35 75.50 235.50 C 78.54 234.12 82.56 231.21 88.00 225.00" vector-effect="non-scaling-stroke"/>
		<path stroke="#AFB6D5" d="M 88.00 225.00 L 88.00 225.00 C 88.00 225.00 88.45 224.55 89.00 224.00 C 89.55 223.45 91.35 223.00 93.00 223.00 C 94.65 223.00 98.25 224.12 101.00 225.50 C 103.75 226.88 106.90 229.12 110.00 233.00 L 105.50 237.50 C 103.03 239.97 99.20 245.15 97.00 249.00 C 94.80 252.85 92.55 256.00 92.00 256.00 C 91.45 256.00 90.78 255.55 90.00 254.00" vector-effect="non-scaling-stroke"/>
		<path stroke="#E8EAF4" d="M 82.00 274.00 C 85.08 266.29 86.23 264.34 87.00 265.50 C 87.74 266.61 86.45 270.35 82.00 280.00 C 78.70 287.15 75.55 293.45 75.00 294.00 C 74.45 294.55 73.78 294.77 73.50 294.50 C 73.22 294.23 74.12 291.75 75.50 289.00 C 76.88 286.25 79.80 279.50 82.00 274.00" vector-effect="non-scaling-stroke"/>
		<path stroke="#5D6A9A" d="M 175.00 300.00 L 175.00 300.00 C 175.00 300.00 168.93 300.23 161.50 300.50 C 154.07 300.77 142.60 300.55 136.00 300.00 C 129.40 299.45 121.08 298.32 117.50 297.50 C 113.92 296.68 110.55 296.23 109.00 297.00" vector-effect="non-scaling-stroke"/>
		<path stroke="#5D6A9A" d="M 109.00 297.00 L 109.00 297.00 C 109.00 297.00 113.28 290.70 118.50 283.00 C 123.72 275.30 128.22 269.45 128.50 270.00 C 128.78 270.55 128.55 273.02 128.00 275.50 C 127.12 279.45 127.24 280.24 129.00 282.00 C 130.10 283.10 134.60 285.80 139.00 288.00 C 143.40 290.20 150.15 293.12 154.00 294.50 C 157.85 295.88 164.15 297.68 175.00 300.00" vector-effect="non-scaling-stroke"/>
	</g>
	<path fill="#FCFDFDDA" d="M 66.00 12.00 C 69.30 12.00 76.50 12.90 82.00 14.00 C 87.50 15.10 95.83 17.12 100.50 18.50 C 105.17 19.88 112.15 22.35 116.00 24.00 C 122.36 26.73 123.45 26.91 128.00 26.00 C 130.75 25.45 139.75 25.00 148.00 25.00 C 157.33 25.00 165.83 25.57 170.50 26.50 C 177.80 27.96 178.22 27.93 186.50 25.50 C 191.54 24.02 201.11 22.39 210.00 21.50 C 218.25 20.68 228.82 20.23 233.50 20.50 C 240.27 20.90 242.81 21.51 246.00 23.50 C 248.20 24.88 250.90 27.35 252.00 29.00 C 253.52 31.29 254.00 33.67 254.00 39.00 C 254.00 42.85 253.55 47.58 253.00 49.50 C 252.45 51.42 251.10 55.48 250.00 58.50 C 248.90 61.52 245.75 67.83 243.00 72.50 C 240.25 77.17 235.97 83.25 233.50 86.00 C 231.03 88.75 229.22 91.45 229.50 92.00 C 229.78 92.55 232.03 93.22 234.50 93.50 C 237.50 93.83 239.83 94.83 241.50 96.50 C 243.21 98.21 244.00 100.10 244.00 102.50 C 244.00 105.17 243.29 106.60 241.00 108.50 C 239.35 109.88 237.10 111.00 236.00 111.00 C 234.22 111.00 234.11 111.33 235.00 114.00 C 235.67 116.00 235.67 117.83 235.00 119.50 C 234.45 120.88 232.65 122.67 231.00 123.50 C 228.33 124.83 227.39 124.83 222.50 123.50 C 219.47 122.67 215.43 121.33 213.50 120.50 C 210.06 119.03 209.92 119.06 205.50 122.50 C 203.03 124.42 198.97 126.90 196.50 128.00 L 192.00 130.00 C 192.00 140.61 192.32 141.35 196.50 146.00 C 198.97 148.75 202.35 153.70 204.00 157.00 C 205.65 160.30 208.12 166.38 209.50 170.50 C 210.88 174.62 214.93 189.47 218.50 203.50 C 222.07 217.53 225.45 231.47 226.00 234.50 C 226.55 237.53 227.45 241.80 228.00 244.00 C 228.55 246.20 229.68 252.28 230.50 257.50 C 231.32 262.73 232.45 267.68 233.00 268.50 C 233.55 269.32 234.90 270.00 236.00 270.00 C 237.10 270.00 240.93 271.12 244.50 272.50 C 248.07 273.88 252.35 275.90 254.00 277.00 C 255.65 278.10 258.12 281.02 259.50 283.50 C 260.88 285.98 262.00 289.57 262.00 291.50 C 262.00 293.43 261.32 296.35 260.50 298.00 C 259.48 300.04 257.24 301.80 253.50 303.50 C 248.99 305.55 245.94 306.09 236.50 306.50 C 228.56 306.85 222.52 306.54 217.00 305.50 C 210.84 304.35 207.50 304.23 202.50 305.00 C 198.93 305.55 192.85 306.68 189.00 307.50 C 183.86 308.60 175.50 309.00 157.50 309.00 C 144.03 309.00 128.72 308.55 123.50 308.00 L 114.00 307.00 C 108.58 313.20 103.40 318.60 99.00 323.00 C 92.83 329.17 89.28 331.80 83.50 334.50 C 79.09 336.56 73.12 338.41 69.00 339.00 C 65.15 339.55 58.85 339.77 55.00 339.50 C 50.62 339.19 46.69 338.25 44.50 337.00 C 42.58 335.90 39.65 335.00 38.00 335.00 C 36.35 335.00 32.52 334.55 29.50 334.00 C 25.31 333.24 23.17 332.17 20.50 329.50 C 18.28 327.28 16.82 324.72 16.50 322.50 C 16.23 320.57 16.45 317.20 17.00 315.00 C 17.72 312.13 19.83 309.17 24.50 304.50 C 28.08 300.93 32.35 296.88 34.00 295.50 C 35.65 294.12 37.00 292.10 37.00 291.00 C 37.00 289.90 38.12 283.15 39.50 276.00 C 40.88 268.85 42.90 258.05 44.00 252.00 C 45.10 245.95 45.77 239.20 45.50 237.00 C 45.23 234.80 44.77 230.30 44.50 227.00 C 44.12 222.45 44.48 219.79 46.00 216.00 C 47.24 212.90 49.71 209.48 52.50 207.00 C 54.98 204.80 59.25 201.88 62.00 200.50 C 64.75 199.12 70.60 197.10 75.00 196.00 C 79.40 194.90 84.35 194.00 86.00 194.00 C 87.65 194.00 89.67 193.32 90.50 192.50 C 91.33 191.68 92.90 186.28 94.00 180.50 C 95.10 174.72 97.12 166.40 98.50 162.00 C 99.88 157.60 101.00 151.75 101.00 149.00 C 101.00 146.25 100.78 142.65 100.50 141.00 C 100.22 139.35 100.67 135.30 101.50 132.00 C 102.33 128.70 102.78 125.78 102.50 125.50 C 102.22 125.22 100.20 123.65 98.00 122.00 C 94.03 119.03 93.96 119.01 89.50 120.50 C 87.03 121.33 82.75 122.45 80.00 123.00 C 76.67 123.67 74.17 123.67 72.50 123.00 C 71.12 122.45 69.55 120.88 69.00 119.50 C 68.33 117.83 68.33 116.00 69.00 114.00 C 69.93 111.20 69.83 111.00 67.50 111.00 C 66.12 111.00 63.88 110.55 62.50 110.00 C 61.09 109.44 59.56 107.69 59.00 106.00 C 58.33 104.00 58.33 102.17 59.00 100.50 C 59.55 99.12 61.35 97.10 63.00 96.00 C 64.65 94.90 67.80 93.78 70.00 93.50 C 72.20 93.22 74.22 92.55 74.50 92.00 C 74.78 91.45 72.97 88.53 70.50 85.50 C 68.03 82.47 64.20 76.85 62.00 73.00 C 59.80 69.15 56.65 62.85 55.00 59.00 C 53.35 55.15 51.10 49.30 50.00 46.00 C 48.90 42.70 47.55 37.30 47.00 34.00 C 46.33 30.00 46.33 26.50 47.00 23.50 C 47.61 20.74 48.97 18.23 50.50 17.00 C 51.88 15.90 54.58 14.32 56.50 13.50 C 58.42 12.68 62.70 12.00 66.00 12.00 Z M 211.00 106.00 C 212.55 104.45 213.00 103.55 213.00 103.00 C 213.00 102.45 213.00 102.00 213.00 102.00 L 213.00 102.00 C 216.88 102.00 221.82 102.22 226.50 102.50 C 232.54 102.86 234.42 102.71 233.00 102.00 C 231.90 101.45 227.40 100.55 223.00 100.00 L 215.00 99.00 C 215.78 94.35 216.00 92.55 216.00 92.00 C 216.00 91.45 218.03 89.65 220.50 88.00 C 223.27 86.15 227.12 81.92 230.50 77.00 C 233.53 72.60 237.80 65.17 240.00 60.50 C 242.20 55.83 244.68 49.30 245.50 46.00 C 246.32 42.70 247.00 38.88 247.00 37.50 C 247.00 36.12 246.32 33.65 245.50 32.00 C 244.63 30.27 242.73 28.58 241.00 28.00 C 239.35 27.45 233.50 27.00 228.00 27.00 C 222.50 27.00 212.60 27.90 206.00 29.00 C 199.40 30.10 190.62 32.12 186.50 33.50 C 180.68 35.44 178.44 35.78 176.50 35.00 C 175.12 34.45 169.28 33.33 163.50 32.50 C 157.04 31.58 149.35 31.19 143.50 31.50 C 138.28 31.77 131.30 32.67 128.00 33.50 C 122.02 35.00 121.98 34.99 115.50 32.00 C 111.92 30.35 105.17 27.65 100.50 26.00 C 95.83 24.35 87.50 22.10 82.00 21.00 C 76.50 19.90 69.75 19.00 67.00 19.00 C 64.25 19.00 60.65 19.45 59.00 20.00 C 57.35 20.55 55.55 21.90 55.00 23.00 C 54.45 24.10 54.00 27.25 54.00 30.00 C 54.00 33.00 55.20 38.40 57.00 43.50 C 58.65 48.17 62.25 56.72 65.00 62.50 C 68.20 69.22 71.80 74.98 75.00 78.50 C 77.75 81.53 81.80 85.35 84.00 87.00 C 87.22 89.41 88.10 90.78 88.50 94.00 C 88.98 97.81 88.86 98.02 86.00 98.50 C 84.35 98.78 79.62 99.67 75.50 100.50 C 71.38 101.33 68.22 102.22 68.50 102.50 C 68.78 102.78 73.05 102.55 78.00 102.00 C 82.95 101.45 87.67 100.78 88.50 100.50 C 89.46 100.18 90.72 101.26 92.00 103.50 C 93.10 105.42 94.00 107.22 94.00 107.50 C 94.00 107.78 90.85 109.12 87.00 110.50 C 83.15 111.88 79.33 113.67 78.50 114.50 C 77.17 115.83 77.17 116.00 78.50 116.00 C 79.33 116.00 82.92 114.65 86.50 113.00 C 90.08 111.35 93.45 110.00 94.00 110.00 C 94.55 110.00 97.47 112.03 100.50 114.50 C 103.53 116.97 108.70 120.35 112.00 122.00 C 115.30 123.65 119.35 125.45 121.00 126.00 C 123.00 126.67 124.00 127.67 124.00 129.00 C 124.00 130.33 123.50 130.83 122.50 130.50 C 121.67 130.22 119.65 129.55 118.00 129.00 C 116.00 128.33 114.17 128.33 112.50 129.00 C 111.12 129.55 109.55 131.12 109.00 132.50 C 108.44 133.91 108.22 139.37 108.50 145.00 C 108.96 154.25 108.77 155.64 106.00 163.50 C 104.35 168.18 101.88 177.40 100.50 184.00 C 99.12 190.60 98.00 197.12 98.00 198.50 C 98.00 200.83 97.67 201.00 93.00 201.00 C 90.25 201.00 84.62 201.68 80.50 202.50 C 76.38 203.32 70.97 204.90 68.50 206.00 C 66.03 207.10 62.20 209.12 60.00 210.50 C 57.73 211.92 54.92 214.95 53.50 217.50 C 51.87 220.43 51.00 223.57 51.00 226.50 C 51.00 229.50 51.67 231.83 53.00 233.50 L 55.00 236.00 C 51.90 248.40 49.42 261.00 47.50 272.00 C 45.58 283.00 44.00 293.35 44.00 295.00 C 44.00 297.48 43.06 298.69 38.50 302.00 C 35.48 304.20 30.98 308.25 28.50 311.00 C 26.02 313.75 23.77 317.12 23.50 318.50 C 23.23 319.88 23.68 322.12 24.50 323.50 C 25.44 325.07 27.49 326.37 30.00 327.00 C 32.20 327.55 36.25 327.77 39.00 327.50 C 43.19 327.08 44.24 327.33 45.50 329.00 C 46.33 330.10 48.58 331.45 50.50 332.00 C 52.42 332.55 57.83 332.77 62.50 332.50 C 69.74 332.07 72.26 331.41 79.50 328.00 C 86.35 324.78 89.56 322.44 96.00 316.00 C 100.40 311.60 105.35 305.98 107.00 303.50 C 109.67 299.50 110.33 299.06 113.00 299.50 C 114.65 299.77 118.70 300.45 122.00 301.00 C 125.30 301.55 141.50 302.00 158.00 302.00 C 185.83 302.00 188.32 301.86 192.50 300.00 C 194.97 298.90 200.15 297.77 204.00 297.50 C 208.41 297.18 213.40 297.55 217.50 298.50 C 221.07 299.32 228.50 300.00 234.00 300.00 C 239.50 300.00 245.80 299.55 248.00 299.00 C 250.20 298.45 252.68 297.10 253.50 296.00 C 254.32 294.90 255.00 292.88 255.00 291.50 C 255.00 290.12 254.10 287.65 253.00 286.00 C 251.90 284.35 248.97 282.10 246.50 281.00 C 244.03 279.90 238.40 278.32 234.00 277.50 L 226.00 276.00 C 224.45 269.80 222.20 258.77 220.00 247.50 C 217.80 236.22 214.43 219.80 212.50 211.00 C 210.57 202.20 207.88 190.95 206.50 186.00 C 205.12 181.05 202.43 173.18 200.50 168.50 C 198.57 163.82 195.43 157.53 193.50 154.50 C 191.57 151.47 188.88 148.32 187.50 147.50 C 185.32 146.19 185.00 145.30 185.00 140.50 C 185.00 136.50 184.45 134.32 183.00 132.50 C 181.83 131.03 179.97 130.00 178.50 130.00 C 177.12 130.00 176.00 129.55 176.00 129.00 C 176.00 128.45 179.82 126.65 184.50 125.00 C 190.17 123.00 195.17 120.33 199.50 117.00 C 203.07 114.25 206.68 111.55 207.50 111.00 C 208.59 110.27 211.16 110.95 217.00 113.50 C 221.40 115.42 225.22 117.00 225.50 117.00 C 225.78 117.00 226.00 116.55 226.00 116.00 C 226.00 115.45 222.40 113.42 218.00 111.50 C 213.60 109.58 210.22 107.55 210.50 107.00 C 210.78 106.45 211.00 106.00 211.00 106.00 L 211.00 106.00 Z" fill-rule="evenodd"/>
	<path fill="#303155FE" d="M 213.00 102.00 C 210.68 101.22 206.18 100.55 201.50 100.00 L 193.00 99.00 L 213.00 99.00 C 214.78 91.01 214.66 89.10 213.50 86.00 C 212.68 83.80 211.55 80.65 211.00 79.00 C 210.45 77.35 209.32 76.00 208.50 76.00 C 207.68 76.00 206.55 76.45 206.00 77.00 C 205.45 77.55 205.00 78.00 205.00 78.00 L 205.00 78.00 C 206.55 76.45 206.78 75.55 206.50 75.00 C 206.22 74.45 206.00 74.00 206.00 74.00 L 206.00 74.00 C 207.55 74.00 208.00 73.33 208.00 72.50 C 208.00 71.67 207.32 69.42 206.50 67.50 C 205.68 65.58 205.00 64.00 205.00 64.00 L 205.00 64.00 C 205.78 64.00 206.22 64.00 206.50 64.00 C 206.78 64.00 207.00 64.00 207.00 64.00 L 207.00 64.00 C 207.00 64.78 208.35 68.83 210.00 73.50 C 212.41 80.33 213.39 82.00 215.00 82.00 C 216.10 82.00 219.03 80.42 221.50 78.50 C 223.97 76.58 227.80 72.75 230.00 70.00 C 232.20 67.25 235.57 61.85 237.50 58.00 C 239.43 54.15 241.68 48.52 242.50 45.50 C 243.32 42.48 244.00 39.10 244.00 38.00 C 244.00 36.90 242.88 34.88 241.50 33.50 C 239.57 31.57 237.97 31.00 234.50 31.00 C 232.03 31.00 230.00 31.00 230.00 31.00 L 230.00 31.00 C 226.90 31.00 225.78 30.55 225.50 30.00 C 225.21 29.42 222.69 29.21 219.50 29.50 C 216.47 29.77 208.82 30.90 202.50 32.00 C 196.18 33.10 188.97 34.90 186.50 36.00 C 184.03 37.10 182.00 38.00 182.00 38.00 L 182.00 38.00 C 163.97 34.72 155.67 34.00 148.00 34.00 C 141.40 34.00 132.40 34.67 128.00 35.50 C 123.60 36.33 120.00 37.00 120.00 37.00 L 120.00 37.00 C 112.25 33.12 107.08 30.88 103.50 29.50 C 99.92 28.12 93.40 26.10 89.00 25.00 C 83.42 23.61 80.55 23.30 79.50 24.00 C 78.67 24.55 78.00 25.00 78.00 25.00 L 78.00 25.00 C 73.35 23.45 69.53 23.00 66.50 23.00 C 62.33 23.00 60.52 23.48 59.00 25.00 C 57.89 26.11 57.00 28.33 57.00 30.00 C 57.00 31.65 58.58 37.27 60.50 42.50 C 62.42 47.73 65.58 54.92 67.50 58.50 C 69.42 62.08 72.58 66.80 74.50 69.00 C 76.42 71.20 78.00 73.00 78.00 73.00 L 78.00 73.00 C 77.10 77.51 77.88 78.78 81.50 82.00 C 83.97 84.20 86.67 86.00 87.50 86.00 C 88.45 86.00 89.18 87.28 89.50 89.50 C 89.78 91.42 90.00 93.00 90.00 93.00 L 90.00 93.00 C 90.00 96.10 90.67 97.22 91.50 97.50 C 92.33 97.78 95.47 97.78 98.50 97.50 C 101.53 97.22 105.80 97.45 108.00 98.00 L 112.00 99.00 C 105.03 99.00 100.75 99.22 98.00 99.50 C 94.44 99.86 93.00 100.43 93.00 101.50 C 93.00 102.33 93.90 103.90 95.00 105.00 C 96.90 106.90 97.26 106.93 102.50 105.50 C 105.53 104.67 108.90 104.00 110.00 104.00 C 111.67 104.00 111.75 104.17 110.50 105.00 C 109.67 105.55 106.75 106.45 104.00 107.00 C 101.25 107.55 99.00 108.45 99.00 109.00 C 99.00 109.55 100.35 111.12 102.00 112.50 C 103.65 113.88 106.80 116.12 109.00 117.50 C 111.20 118.88 116.15 121.35 120.00 123.00 C 123.85 124.65 127.00 126.00 127.00 126.00 L 127.00 126.00 C 127.00 130.65 127.22 132.45 127.50 133.00 C 127.78 133.55 129.35 134.68 131.00 135.50 C 132.65 136.32 134.00 137.00 134.00 137.00 L 134.00 137.00 C 134.78 137.00 135.90 137.45 137.00 138.00 C 138.10 138.55 139.00 139.00 139.00 139.00 L 139.00 139.00 C 139.00 139.78 142.38 140.22 146.50 140.50 C 150.62 140.78 154.00 141.00 154.00 141.00 L 154.00 141.00 C 154.78 141.00 155.00 141.00 155.00 141.00 L 155.00 141.00 C 156.55 144.10 157.00 145.45 157.00 146.00 C 157.00 146.61 159.17 146.80 162.50 146.50 C 166.57 146.13 168.39 146.39 169.50 147.50 C 170.39 148.39 170.59 149.20 170.00 149.50 C 169.45 149.78 166.53 150.45 163.50 151.00 C 160.47 151.55 157.78 152.22 157.50 152.50 C 157.22 152.78 156.78 154.12 156.50 155.50 C 156.12 157.40 156.48 158.12 158.00 158.50 C 159.10 158.78 160.68 159.45 161.50 160.00 C 162.32 160.55 165.25 162.12 168.00 163.50 C 170.75 164.88 173.90 166.00 175.00 166.00 C 176.10 166.00 177.68 164.88 178.50 163.50 C 179.32 162.12 180.45 158.07 181.00 154.50 C 181.55 150.93 182.00 145.07 182.00 141.50 C 182.00 136.83 181.58 134.72 180.50 134.00 C 179.68 133.45 176.97 133.22 174.50 133.50 C 172.03 133.78 168.20 135.12 166.00 136.50 C 163.71 137.93 161.14 138.79 160.00 138.50 C 158.90 138.22 158.00 138.00 158.00 138.00 L 158.00 138.00 C 162.65 135.68 164.68 134.55 165.50 134.00 C 166.32 133.45 167.00 131.88 167.00 130.50 C 167.00 129.12 167.00 128.00 167.00 128.00 L 167.00 128.00 C 167.78 128.00 168.22 128.00 168.50 128.00 C 168.78 128.00 169.00 128.00 169.00 128.00 L 169.00 128.00 C 170.55 130.32 171.45 131.00 172.00 131.00 C 172.55 131.00 173.00 130.10 173.00 129.00 C 173.00 127.90 173.00 127.00 173.00 127.00 L 173.00 127.00 C 186.18 122.35 192.70 119.20 196.00 117.00 C 199.30 114.80 202.68 112.10 203.50 111.00 C 204.88 109.15 204.81 108.92 202.50 108.00 C 201.12 107.45 198.43 106.78 196.50 106.50 C 194.57 106.22 193.00 105.55 193.00 105.00 C 193.00 104.45 193.90 104.22 195.00 104.50 C 196.10 104.78 199.25 105.45 202.00 106.00 C 206.67 106.93 207.17 106.83 209.50 104.50 C 211.72 102.28 211.94 102.22 211.50 104.00 C 211.22 105.10 211.00 106.00 211.00 106.00 L 211.00 106.00 L 211.00 106.00 C 211.00 106.00 210.78 106.45 210.50 107.00 C 210.22 107.55 213.60 109.58 218.00 111.50 C 222.40 113.42 226.00 115.45 226.00 116.00 C 226.00 116.55 225.78 117.00 225.50 117.00 C 225.22 117.00 221.40 115.42 217.00 113.50 C 211.16 110.95 208.59 110.27 207.50 111.00 C 206.68 111.55 203.07 114.25 199.50 117.00 C 195.17 120.33 190.17 123.00 184.50 125.00 C 179.82 126.65 176.00 128.45 176.00 129.00 C 176.00 129.55 177.12 130.00 178.50 130.00 C 179.97 130.00 181.83 131.03 183.00 132.50 C 184.45 134.32 185.00 136.50 185.00 140.50 C 185.00 145.30 185.32 146.19 187.50 147.50 C 188.88 148.32 191.57 151.47 193.50 154.50 C 195.43 157.53 198.57 163.82 200.50 168.50 C 202.43 173.18 205.12 181.05 206.50 186.00 C 207.88 190.95 210.57 202.20 212.50 211.00 C 214.43 219.80 217.80 236.22 220.00 247.50 C 222.20 258.77 224.45 269.80 226.00 276.00 L 234.00 277.50 C 238.40 278.32 244.03 279.90 246.50 281.00 C 248.97 282.10 251.90 284.35 253.00 286.00 C 254.10 287.65 255.00 290.12 255.00 291.50 C 255.00 292.88 254.32 294.90 253.50 296.00 C 252.68 297.10 250.20 298.45 248.00 299.00 C 245.80 299.55 239.50 300.00 234.00 300.00 C 228.50 300.00 221.07 299.32 217.50 298.50 C 213.40 297.55 208.41 297.18 204.00 297.50 C 200.15 297.77 194.97 298.90 192.50 300.00 C 188.32 301.86 185.83 302.00 158.00 302.00 C 141.50 302.00 125.30 301.55 122.00 301.00 C 118.70 300.45 114.65 299.77 113.00 299.50 C 110.33 299.06 109.67 299.50 107.00 303.50 C 105.35 305.98 100.40 311.60 96.00 316.00 C 89.56 322.44 86.35 324.78 79.50 328.00 C 72.26 331.41 69.74 332.07 62.50 332.50 C 57.83 332.77 52.42 332.55 50.50 332.00 C 48.58 331.45 46.33 330.10 45.50 329.00 C 44.24 327.33 43.19 327.08 39.00 327.50 C 36.25 327.77 32.20 327.55 30.00 327.00 C 27.49 326.37 25.44 325.07 24.50 323.50 C 23.68 322.12 23.23 319.88 23.50 318.50 C 23.77 317.12 26.02 313.75 28.50 311.00 C 30.98 308.25 35.48 304.20 38.50 302.00 C 43.06 298.69 44.00 297.48 44.00 295.00 C 44.00 293.35 45.58 283.00 47.50 272.00 C 49.42 261.00 51.90 248.40 55.00 236.00 L 53.00 233.50 C 51.67 231.83 51.00 229.50 51.00 226.50 C 51.00 223.57 51.87 220.43 53.50 217.50 C 54.92 214.95 57.73 211.92 60.00 210.50 C 62.20 209.12 66.03 207.10 68.50 206.00 C 70.97 204.90 76.38 203.32 80.50 202.50 C 84.62 201.68 90.25 201.00 93.00 201.00 C 97.67 201.00 98.00 200.83 98.00 198.50 C 98.00 197.12 99.12 190.60 100.50 184.00 C 101.88 177.40 104.35 168.18 106.00 163.50 C 108.77 155.64 108.96 154.25 108.50 145.00 C 108.22 139.37 108.44 133.91 109.00 132.50 C 109.55 131.12 111.12 129.55 112.50 129.00 C 114.17 128.33 116.00 128.33 118.00 129.00 C 119.65 129.55 121.67 130.22 122.50 130.50 C 123.50 130.83 124.00 130.33 124.00 129.00 C 124.00 127.67 123.00 126.67 121.00 126.00 C 119.35 125.45 115.30 123.65 112.00 122.00 C 108.70 120.35 103.53 116.97 100.50 114.50 C 97.47 112.03 94.55 110.00 94.00 110.00 C 93.45 110.00 90.08 111.35 86.50 113.00 C 82.92 114.65 79.33 116.00 78.50 116.00 C 77.17 116.00 77.17 115.83 78.50 114.50 C 79.33 113.67 83.15 111.88 87.00 110.50 C 90.85 109.12 94.00 107.78 94.00 107.50 C 94.00 107.22 93.10 105.42 92.00 103.50 C 90.72 101.26 89.46 100.18 88.50 100.50 C 87.67 100.78 82.95 101.45 78.00 102.00 C 73.05 102.55 68.78 102.78 68.50 102.50 C 68.22 102.22 71.38 101.33 75.50 100.50 C 79.62 99.67 84.35 98.78 86.00 98.50 C 88.86 98.02 88.98 97.81 88.50 94.00 C 88.10 90.78 87.22 89.41 84.00 87.00 C 81.80 85.35 77.75 81.53 75.00 78.50 C 71.80 74.98 68.20 69.22 65.00 62.50 C 62.25 56.72 58.65 48.17 57.00 43.50 C 55.20 38.40 54.00 33.00 54.00 30.00 C 54.00 27.25 54.45 24.10 55.00 23.00 C 55.55 21.90 57.35 20.55 59.00 20.00 C 60.65 19.45 64.25 19.00 67.00 19.00 C 69.75 19.00 76.50 19.90 82.00 21.00 C 87.50 22.10 95.83 24.35 100.50 26.00 C 105.17 27.65 111.92 30.35 115.50 32.00 C 121.98 34.99 122.02 35.00 128.00 33.50 C 131.30 32.67 138.28 31.77 143.50 31.50 C 149.35 31.19 157.04 31.58 163.50 32.50 C 169.28 33.33 175.12 34.45 176.50 35.00 C 178.44 35.78 180.68 35.44 186.50 33.50 C 190.62 32.12 199.40 30.10 206.00 29.00 C 212.60 27.90 222.50 27.00 228.00 27.00 C 233.50 27.00 239.35 27.45 241.00 28.00 C 242.73 28.58 244.63 30.27 245.50 32.00 C 246.32 33.65 247.00 36.12 247.00 37.50 C 247.00 38.88 246.32 42.70 245.50 46.00 C 244.68 49.30 242.20 55.83 240.00 60.50 C 237.80 65.17 233.53 72.60 230.50 77.00 C 227.12 81.92 223.27 86.15 220.50 88.00 C 218.03 89.65 216.00 91.45 216.00 92.00 C 216.00 92.55 215.78 94.35 215.00 99.00 L 223.00 100.00 C 227.40 100.55 231.90 101.45 233.00 102.00 C 234.42 102.71 232.54 102.86 226.50 102.50 C 221.82 102.22 216.88 102.00 213.00 102.00 Z M 112.00 134.50 C 111.33 136.83 111.33 141.33 112.00 148.00 C 112.55 153.50 113.45 159.35 114.00 161.00 C 114.81 163.44 115.56 164.00 118.00 164.00 C 119.65 164.00 122.58 163.32 124.50 162.50 C 126.42 161.68 130.03 160.10 132.50 159.00 C 136.39 157.27 137.00 156.59 137.00 154.00 C 137.00 151.09 136.83 150.98 131.50 150.50 C 128.47 150.22 125.33 149.78 124.50 149.50 C 123.67 149.22 123.00 148.32 123.00 147.50 C 123.00 146.26 124.22 146.09 130.00 146.50 C 136.39 146.96 137.04 146.82 137.50 145.00 C 137.78 143.90 137.55 142.32 137.00 141.50 C 136.45 140.68 131.72 137.97 126.50 135.50 C 121.28 133.03 116.10 131.00 115.00 131.00 C 113.57 131.00 112.71 132.00 112.00 134.50 Z M 140.50 144.00 C 140.22 144.55 140.22 147.70 140.50 151.00 C 140.95 156.42 141.24 157.05 143.50 157.50 C 144.88 157.78 147.57 157.78 149.50 157.50 C 152.25 157.11 153.11 156.46 153.50 154.50 C 153.78 153.12 153.78 150.20 153.50 148.00 L 153.00 144.00 C 143.48 143.21 140.79 143.41 140.50 144.00 Z M 165.00 165.00 C 155.78 160.39 153.60 160.00 146.00 160.00 C 141.05 160.00 136.10 160.45 135.00 161.00 C 133.90 161.55 133.00 162.00 133.00 162.00 L 133.00 162.00 C 126.03 164.32 123.55 165.45 123.00 166.00 C 122.45 166.55 122.00 170.82 122.00 175.50 C 122.00 183.06 122.50 185.39 126.50 196.50 C 128.97 203.38 131.68 211.03 132.50 213.50 C 133.52 216.56 133.84 220.24 133.50 225.00 C 133.22 228.85 133.00 232.00 133.00 232.00 L 133.00 232.00 C 130.68 232.78 130.00 232.78 130.00 232.50 C 130.00 232.22 130.00 232.00 130.00 232.00 L 130.00 232.00 C 131.55 223.47 131.78 219.88 131.50 218.50 C 131.22 217.12 130.55 216.22 130.00 216.50 C 129.45 216.78 128.78 218.12 128.50 219.50 C 128.22 220.88 128.00 222.00 128.00 222.00 L 128.00 222.00 C 127.22 222.78 126.78 223.00 126.50 223.00 C 126.22 223.00 126.22 222.55 126.50 222.00 C 126.78 221.45 127.00 221.00 127.00 221.00 L 127.00 221.00 C 127.93 209.87 127.42 207.27 124.00 197.00 C 120.93 187.80 119.88 182.90 119.50 176.00 C 119.01 167.20 118.94 167.00 116.50 167.00 C 115.12 167.00 113.33 166.32 112.50 165.50 C 111.67 164.68 111.00 163.32 111.00 162.50 C 111.00 161.68 110.55 161.00 110.00 161.00 C 109.45 161.00 108.33 163.47 107.50 166.50 C 106.67 169.53 105.55 173.80 105.00 176.00 C 104.45 178.20 102.88 185.18 101.50 191.50 C 100.12 197.82 99.00 203.00 99.00 203.00 L 99.00 203.00 C 87.38 203.78 80.40 204.90 76.00 206.00 C 71.60 207.10 65.75 209.35 63.00 211.00 C 60.25 212.65 57.10 215.57 56.00 217.50 C 54.90 219.43 54.00 222.80 54.00 225.00 C 54.00 227.20 54.00 229.00 54.00 229.00 L 54.00 229.00 C 55.55 230.55 56.23 232.57 56.50 234.50 C 56.77 236.43 57.00 238.00 57.00 238.00 L 57.00 238.00 C 53.90 250.40 51.42 262.77 49.50 273.50 C 47.58 284.23 45.77 294.57 45.50 296.50 C 45.09 299.36 43.91 300.82 39.00 304.50 C 35.70 306.98 31.43 311.02 29.50 313.50 C 27.57 315.98 26.00 319.12 26.00 320.50 C 26.00 321.88 26.68 323.23 27.50 323.50 C 28.32 323.77 29.23 324.00 29.50 324.00 C 29.77 324.00 30.00 323.32 30.00 322.50 C 30.00 321.68 31.12 319.88 32.50 318.50 L 35.00 316.00 C 35.00 323.17 35.42 324.10 37.00 324.50 C 38.56 324.89 39.44 324.11 41.00 321.00 C 42.10 318.80 43.23 317.00 43.50 317.00 C 43.77 317.00 43.77 318.12 43.50 319.50 C 43.23 320.88 43.45 322.23 44.00 322.50 C 44.55 322.77 45.90 321.88 47.00 320.50 C 48.10 319.12 52.38 315.52 56.50 312.50 C 63.82 307.13 64.13 306.73 69.50 295.50 C 72.53 289.18 77.70 277.02 81.00 268.50 C 84.30 259.98 87.22 252.32 87.50 251.50 C 87.90 250.30 88.20 250.40 89.00 252.00 C 89.55 253.10 90.00 254.00 90.00 254.00 L 90.00 254.00 C 88.45 255.55 88.00 257.57 88.00 259.50 C 88.00 262.70 88.21 262.96 90.50 262.50 C 91.88 262.23 93.00 262.00 93.00 262.00 L 93.00 262.00 C 81.38 288.35 76.42 298.02 74.50 300.50 C 72.58 302.98 66.50 308.15 61.00 312.00 C 55.50 315.85 50.55 319.90 50.00 321.00 C 49.45 322.10 49.23 324.12 49.50 325.50 C 49.77 326.88 50.90 328.45 52.00 329.00 C 53.76 329.88 54.24 329.45 56.00 325.50 C 57.10 323.02 58.45 320.77 59.00 320.50 C 59.55 320.23 59.77 320.68 59.50 321.50 C 59.23 322.32 58.55 324.35 58.00 326.00 C 57.45 327.65 57.23 329.23 57.50 329.50 C 57.77 329.77 59.35 330.00 61.00 330.00 C 63.48 330.00 64.26 329.39 65.50 326.50 C 66.33 324.57 67.67 322.55 68.50 322.00 C 69.83 321.11 69.83 321.33 68.50 324.00 C 67.67 325.65 67.22 327.45 67.50 328.00 C 67.78 328.55 69.12 329.00 70.50 329.00 C 71.88 329.00 76.15 327.43 80.00 325.50 C 84.51 323.24 89.31 319.69 93.50 315.50 C 97.08 311.93 102.03 306.30 104.50 303.00 C 106.97 299.70 109.00 297.00 109.00 297.00 L 109.00 297.00 C 110.55 296.23 113.92 296.68 117.50 297.50 C 121.08 298.32 129.40 299.45 136.00 300.00 C 142.60 300.55 154.07 300.77 161.50 300.50 C 168.93 300.23 175.00 300.00 175.00 300.00 L 175.00 300.00 C 185.07 299.23 190.03 298.32 192.50 297.50 C 194.97 296.68 197.68 295.10 198.50 294.00 C 199.32 292.90 200.00 292.00 200.00 292.00 L 200.00 292.00 L 204.00 287.00 C 210.20 292.43 212.90 294.45 214.00 295.00 C 215.10 295.55 216.90 296.00 218.00 296.00 C 219.10 296.00 220.00 296.00 220.00 296.00 L 220.00 296.00 C 228.53 297.55 231.68 298.00 232.50 298.00 C 233.32 298.00 234.22 297.32 234.50 296.50 C 234.78 295.68 233.88 293.43 232.50 291.50 C 231.12 289.57 230.45 288.00 231.00 288.00 C 231.55 288.00 233.12 289.35 234.50 291.00 C 235.88 292.65 237.22 294.68 237.50 295.50 C 237.80 296.39 239.22 297.00 241.00 297.00 C 243.40 297.00 244.10 296.50 244.50 294.50 C 244.84 292.78 244.22 291.06 242.50 289.00 C 240.65 286.78 240.39 286.00 241.50 286.00 C 242.32 286.00 243.90 287.12 245.00 288.50 C 246.10 289.88 247.22 292.12 247.50 293.50 C 247.78 294.88 248.68 296.00 249.50 296.00 C 250.32 296.00 251.22 295.32 251.50 294.50 C 251.78 293.68 252.00 291.88 252.00 290.50 C 252.00 289.12 250.88 286.88 249.50 285.50 C 248.12 284.12 244.07 282.10 240.50 281.00 C 236.93 279.90 231.53 278.77 228.50 278.50 L 223.00 278.00 C 220.68 262.50 217.97 247.88 215.50 235.50 C 213.03 223.12 209.65 207.60 208.00 201.00 C 206.35 194.40 203.43 184.28 201.50 178.50 C 199.57 172.72 196.65 165.30 195.00 162.00 C 193.35 158.70 190.65 154.43 189.00 152.50 C 187.35 150.57 185.55 149.00 185.00 149.00 C 184.45 149.00 183.55 152.15 183.00 156.00 C 182.45 159.85 181.55 164.12 181.00 165.50 C 180.17 167.58 179.33 168.00 176.00 168.00 C 173.80 168.00 170.43 167.32 168.50 166.50 C 166.57 165.68 165.00 165.00 165.00 165.00 L 165.00 165.00 Z M 82.00 274.00 C 79.80 279.50 76.88 286.25 75.50 289.00 C 74.12 291.75 73.22 294.23 73.50 294.50 C 73.78 294.77 74.45 294.55 75.00 294.00 C 75.55 293.45 78.70 287.15 82.00 280.00 C 86.45 270.35 87.74 266.61 87.00 265.50 C 86.23 264.34 85.08 266.29 82.00 274.00 Z" fill-rule="evenodd"/>
	<path fill="#F9C7BA" d="M 78.00 25.00 C 88.08 30.43 94.15 34.92 98.00 38.50 C 101.85 42.08 105.00 45.45 105.00 46.00 C 105.00 46.55 104.33 46.77 103.50 46.50 C 102.67 46.23 99.97 45.77 97.50 45.50 C 93.94 45.10 93.00 45.31 93.00 46.50 C 93.00 47.33 94.58 49.12 96.50 50.50 C 98.42 51.88 100.00 53.45 100.00 54.00 C 100.00 54.55 98.65 55.00 97.00 55.00 C 95.35 55.00 93.78 55.45 93.50 56.00 C 93.22 56.55 93.90 57.90 95.00 59.00 L 97.00 61.00 C 90.80 76.50 88.55 81.00 88.00 81.00 C 87.45 81.00 84.97 79.20 82.50 77.00 C 80.03 74.80 78.00 73.00 78.00 73.00 L 78.00 73.00 L 78.00 73.00 C 78.00 73.00 76.42 71.20 74.50 69.00 C 72.58 66.80 69.42 62.08 67.50 58.50 C 65.58 54.92 62.42 47.73 60.50 42.50 C 58.58 37.27 57.00 31.65 57.00 30.00 C 57.00 28.33 57.89 26.11 59.00 25.00 C 60.52 23.48 62.33 23.00 66.50 23.00 C 69.53 23.00 73.35 23.45 78.00 25.00 Z" fill-rule="evenodd"/>
	<path fill="#5D6793" d="M 120.00 37.00 C 113.03 42.42 108.97 46.70 106.50 50.00 C 104.03 53.30 100.65 58.92 99.00 62.50 C 97.35 66.08 95.33 70.58 94.50 72.50 C 93.67 74.42 92.33 77.80 91.50 80.00 C 90.67 82.20 90.00 86.03 90.00 88.50 C 90.00 90.97 90.00 93.00 90.00 93.00 L 90.00 93.00 L 90.00 93.00 C 90.00 93.00 89.78 91.42 89.50 89.50 C 89.18 87.28 88.45 86.00 87.50 86.00 C 86.67 86.00 83.97 84.20 81.50 82.00 C 77.88 78.78 77.10 77.51 78.00 73.00 L 78.00 73.00 C 78.00 73.00 80.03 74.80 82.50 77.00 C 84.97 79.20 87.45 81.00 88.00 81.00 C 88.55 81.00 90.80 76.50 97.00 61.00 L 95.00 59.00 C 93.90 57.90 93.22 56.55 93.50 56.00 C 93.78 55.45 95.35 55.00 97.00 55.00 C 98.65 55.00 100.00 54.55 100.00 54.00 C 100.00 53.45 98.42 51.88 96.50 50.50 C 94.58 49.12 93.00 47.33 93.00 46.50 C 93.00 45.31 93.94 45.10 97.50 45.50 C 99.97 45.77 102.67 46.23 103.50 46.50 C 104.33 46.77 105.00 46.55 105.00 46.00 C 105.00 45.45 101.85 42.08 98.00 38.50 C 94.15 34.92 88.08 30.43 78.00 25.00 L 78.00 25.00 C 78.00 25.00 78.67 24.55 79.50 24.00 C 80.55 23.30 83.42 23.61 89.00 25.00 C 93.40 26.10 99.92 28.12 103.50 29.50 C 107.08 30.88 112.25 33.12 120.00 37.00 Z" fill-rule="evenodd"/>
	<path fill="#5E6994" d="M 230.00 31.00 C 226.90 31.77 222.40 33.35 218.00 35.00 C 213.08 36.85 207.88 39.73 204.50 42.50 C 201.47 44.98 199.00 47.67 199.00 48.50 C 199.00 49.73 200.17 49.91 205.50 49.50 C 209.50 49.19 212.00 49.38 212.00 50.00 C 212.00 50.55 210.20 52.12 208.00 53.50 C 205.80 54.88 204.00 56.45 204.00 57.00 C 204.00 57.55 205.12 58.00 206.50 58.00 C 207.88 58.00 209.22 58.67 209.50 59.50 C 209.78 60.33 209.32 61.67 208.50 62.50 C 207.68 63.33 207.00 64.00 207.00 64.00 L 207.00 64.00 L 207.00 64.00 C 207.00 64.00 206.78 64.00 206.50 64.00 C 206.22 64.00 205.78 64.00 205.00 64.00 C 199.57 55.48 196.43 50.98 194.50 48.50 C 192.57 46.02 188.97 42.65 186.50 41.00 C 184.03 39.35 182.00 38.00 182.00 38.00 L 182.00 38.00 L 182.00 38.00 C 182.00 38.00 184.03 37.10 186.50 36.00 C 188.97 34.90 196.18 33.10 202.50 32.00 C 208.82 30.90 216.47 29.77 219.50 29.50 C 222.69 29.21 225.21 29.42 225.50 30.00 C 225.78 30.55 226.90 31.00 230.00 31.00 Z" fill-rule="evenodd"/>
	<path fill="#F9C8BB" d="M 230.00 31.00 L 230.00 31.00 C 230.00 31.00 232.03 31.00 234.50 31.00 C 237.97 31.00 239.57 31.57 241.50 33.50 C 242.88 34.88 244.00 36.90 244.00 38.00 C 244.00 39.10 243.32 42.48 242.50 45.50 C 241.68 48.52 239.43 54.15 237.50 58.00 C 235.57 61.85 232.20 67.25 230.00 70.00 C 227.80 72.75 223.97 76.58 221.50 78.50 C 219.03 80.42 216.10 82.00 215.00 82.00 C 213.39 82.00 212.41 80.33 210.00 73.50 C 208.35 68.83 207.00 64.78 207.00 64.00 L 207.00 64.00 C 207.00 64.00 207.68 63.33 208.50 62.50 C 209.32 61.67 209.78 60.33 209.50 59.50 C 209.22 58.67 207.88 58.00 206.50 58.00 C 205.12 58.00 204.00 57.55 204.00 57.00 C 204.00 56.45 205.80 54.88 208.00 53.50 C 210.20 52.12 212.00 50.55 212.00 50.00 C 212.00 49.38 209.50 49.19 205.50 49.50 C 200.17 49.91 199.00 49.73 199.00 48.50 C 199.00 47.67 201.47 44.98 204.50 42.50 C 207.88 39.73 213.08 36.85 218.00 35.00 C 222.40 33.35 226.90 31.77 230.00 31.00 Z" fill-rule="evenodd"/>
	<path fill="#AFB6D4" d="M 182.00 38.00 L 182.00 38.00 C 182.00 38.00 184.03 39.35 186.50 41.00 C 188.97 42.65 192.57 46.02 194.50 48.50 C 196.43 50.98 199.57 55.48 205.00 64.00 L 205.00 64.00 C 205.00 64.00 205.68 65.58 206.50 67.50 C 207.32 69.42 208.00 71.67 208.00 72.50 C 208.00 73.33 207.55 74.00 206.00 74.00 C 193.60 72.45 187.30 72.00 184.00 72.00 C 180.70 72.00 175.75 72.67 173.00 73.50 C 170.25 74.33 167.55 75.45 167.00 76.00 C 166.33 76.67 166.33 77.17 167.00 77.50 C 167.55 77.78 168.00 78.00 168.00 78.00 L 168.00 78.00 C 166.45 78.78 166.00 79.45 166.00 80.00 C 166.00 80.55 167.80 82.58 170.00 84.50 C 172.20 86.42 175.35 88.67 177.00 89.50 C 178.94 90.47 181.59 90.82 184.50 90.50 C 186.97 90.22 189.00 90.00 189.00 90.00 L 189.00 90.00 C 192.10 90.78 194.35 90.10 196.00 89.00 C 197.65 87.90 200.35 84.97 202.00 82.50 C 203.65 80.03 205.00 78.00 205.00 78.00 L 205.00 78.00 L 205.00 78.00 C 205.00 78.00 205.45 77.55 206.00 77.00 C 206.55 76.45 207.68 76.00 208.50 76.00 C 209.32 76.00 210.45 77.35 211.00 79.00 C 211.55 80.65 212.68 83.80 213.50 86.00 C 214.66 89.10 214.78 91.01 213.00 99.00 L 193.00 99.00 L 201.50 100.00 C 206.18 100.55 210.68 101.22 213.00 102.00 L 213.00 102.00 C 213.00 102.00 213.00 102.45 213.00 103.00 C 213.00 103.55 212.55 104.45 211.00 106.00 L 211.00 106.00 C 211.00 106.00 211.22 105.10 211.50 104.00 C 211.94 102.22 211.72 102.28 209.50 104.50 C 207.17 106.83 206.67 106.93 202.00 106.00 C 199.25 105.45 196.10 104.78 195.00 104.50 C 193.90 104.22 193.00 104.45 193.00 105.00 C 193.00 105.55 194.57 106.22 196.50 106.50 C 198.43 106.78 201.12 107.45 202.50 108.00 C 204.81 108.92 204.88 109.15 203.50 111.00 C 202.68 112.10 199.30 114.80 196.00 117.00 C 192.70 119.20 186.18 122.35 173.00 127.00 C 182.28 117.72 184.31 114.75 185.00 112.00 C 185.55 109.80 185.78 106.88 185.50 105.50 C 185.22 104.12 183.20 101.42 181.00 99.50 C 178.80 97.58 174.30 93.30 171.00 90.00 C 167.70 86.70 163.88 81.75 162.50 79.00 C 161.12 76.25 158.88 70.17 157.50 65.50 C 156.12 60.83 154.78 55.88 154.50 54.50 C 154.17 52.83 153.67 52.33 153.00 53.00 C 152.45 53.55 151.32 56.25 150.50 59.00 C 149.68 61.75 147.65 66.92 146.00 70.50 C 144.35 74.08 141.20 79.70 139.00 83.00 C 136.67 86.50 132.08 91.29 128.00 94.50 C 123.69 97.88 120.42 101.35 119.50 103.50 C 118.38 106.12 118.25 107.75 119.00 110.00 C 119.55 111.65 121.12 114.58 122.50 116.50 C 123.88 118.42 127.03 121.35 129.50 123.00 C 131.97 124.65 134.00 126.00 134.00 126.00 L 134.00 126.00 C 133.22 126.78 132.55 127.00 132.00 127.00 C 131.45 127.00 131.00 127.00 131.00 127.00 L 131.00 127.00 C 128.68 126.22 127.78 126.00 127.50 126.00 C 127.22 126.00 127.00 126.00 127.00 126.00 L 127.00 126.00 L 127.00 126.00 C 127.00 126.00 123.85 124.65 120.00 123.00 C 116.15 121.35 111.20 118.88 109.00 117.50 C 106.80 116.12 103.65 113.88 102.00 112.50 C 100.35 111.12 99.00 109.55 99.00 109.00 C 99.00 108.45 101.25 107.55 104.00 107.00 C 106.75 106.45 109.67 105.55 110.50 105.00 C 111.75 104.17 111.67 104.00 110.00 104.00 C 108.90 104.00 105.53 104.67 102.50 105.50 C 97.26 106.93 96.90 106.90 95.00 105.00 C 93.90 103.90 93.00 102.33 93.00 101.50 C 93.00 100.43 94.44 99.86 98.00 99.50 C 100.75 99.22 105.03 99.00 112.00 99.00 L 108.00 98.00 C 105.80 97.45 101.53 97.22 98.50 97.50 C 95.47 97.78 92.33 97.78 91.50 97.50 C 90.67 97.22 90.00 96.10 90.00 93.00 L 90.00 93.00 C 90.00 93.00 90.00 90.97 90.00 88.50 C 90.00 86.03 90.67 82.20 91.50 80.00 C 92.33 77.80 93.67 74.42 94.50 72.50 C 95.33 70.58 97.35 66.08 99.00 62.50 C 100.65 58.92 104.03 53.30 106.50 50.00 C 108.97 46.70 113.03 42.42 120.00 37.00 L 120.00 37.00 C 120.00 37.00 123.60 36.33 128.00 35.50 C 132.40 34.67 141.40 34.00 148.00 34.00 C 155.67 34.00 163.97 34.72 182.00 38.00 Z M 117.00 53.50 C 115.35 54.33 113.10 55.90 112.00 57.00 C 110.67 58.33 110.50 58.83 111.50 58.50 C 112.33 58.23 114.80 57.55 117.00 57.00 C 119.20 56.45 122.80 56.23 125.00 56.50 C 127.20 56.77 130.12 57.23 131.50 57.50 L 134.00 58.00 C 129.83 53.83 127.50 52.83 124.50 52.50 C 121.59 52.18 118.94 52.53 117.00 53.50 Z M 176.50 55.50 C 175.68 56.33 174.55 57.00 174.00 57.00 C 173.45 57.00 173.00 57.45 173.00 58.00 C 173.00 58.60 175.00 58.80 178.00 58.50 C 180.93 58.21 185.28 58.62 188.50 59.50 C 191.53 60.33 194.45 61.23 195.00 61.50 C 195.55 61.77 195.32 61.10 194.50 60.00 C 193.68 58.90 190.97 57.10 188.50 56.00 C 186.03 54.90 182.65 54.00 181.00 54.00 C 179.35 54.00 177.32 54.67 176.50 55.50 Z M 100.00 70.00 C 98.45 70.00 97.78 70.22 97.50 70.50 C 97.22 70.78 97.90 72.12 99.00 73.50 C 100.10 74.88 101.00 76.00 101.00 76.00 L 101.00 76.00 C 104.15 82.30 106.70 85.06 109.00 86.50 C 111.20 87.88 113.45 88.78 114.00 88.50 C 114.55 88.22 115.00 88.00 115.00 88.00 L 115.00 88.00 C 119.65 88.78 122.80 88.55 125.00 88.00 C 127.20 87.45 130.80 85.65 133.00 84.00 C 135.33 82.25 137.00 80.17 137.00 79.00 C 137.00 77.90 137.00 77.00 137.00 77.00 L 137.00 77.00 C 137.78 75.45 136.43 74.10 134.50 73.00 C 132.57 71.90 128.53 70.55 125.50 70.00 C 122.47 69.45 115.50 69.22 110.00 69.50 C 104.50 69.78 100.00 70.00 100.00 70.00 L 100.00 70.00 Z" fill-rule="evenodd"/>
	<path fill="#515E89" d="M 117.00 53.50 C 118.94 52.53 121.59 52.18 124.50 52.50 C 127.50 52.83 129.83 53.83 134.00 58.00 L 131.50 57.50 C 130.12 57.23 127.20 56.77 125.00 56.50 C 122.80 56.23 119.20 56.45 117.00 57.00 C 114.80 57.55 112.33 58.23 111.50 58.50 C 110.50 58.83 110.67 58.33 112.00 57.00 C 113.10 55.90 115.35 54.33 117.00 53.50 Z" fill-rule="evenodd"/>
	<path fill="#F5F6F1" d="M 173.00 127.00 C 169.90 127.00 169.00 127.22 169.00 127.50 C 169.00 127.78 169.00 128.00 169.00 128.00 L 169.00 128.00 L 169.00 128.00 C 169.00 128.00 168.78 128.00 168.50 128.00 C 168.22 128.00 167.78 128.00 167.00 128.00 C 156.93 129.55 151.97 129.78 149.50 129.50 C 147.03 129.22 142.53 128.32 139.50 127.50 C 136.47 126.67 134.00 126.00 134.00 126.00 L 134.00 126.00 L 134.00 126.00 C 134.00 126.00 131.97 124.65 129.50 123.00 C 127.03 121.35 123.88 118.42 122.50 116.50 C 121.12 114.58 119.55 111.65 119.00 110.00 C 118.25 107.75 118.38 106.12 119.50 103.50 C 120.42 101.35 123.69 97.88 128.00 94.50 C 132.08 91.29 136.67 86.50 139.00 83.00 C 141.20 79.70 144.35 74.08 146.00 70.50 C 147.65 66.92 149.68 61.75 150.50 59.00 C 151.32 56.25 152.45 53.55 153.00 53.00 C 153.67 52.33 154.17 52.83 154.50 54.50 C 154.78 55.88 156.12 60.83 157.50 65.50 C 158.88 70.17 161.12 76.25 162.50 79.00 C 163.88 81.75 167.70 86.70 171.00 90.00 C 174.30 93.30 178.80 97.58 181.00 99.50 C 183.20 101.42 185.22 104.12 185.50 105.50 C 185.78 106.88 185.55 109.80 185.00 112.00 C 184.31 114.75 182.28 117.72 173.00 127.00 Z M 147.00 108.00 C 140.33 108.00 138.33 107.33 137.00 106.00 C 135.90 104.90 134.78 104.22 134.50 104.50 C 134.22 104.78 134.22 105.67 134.50 106.50 C 134.78 107.33 136.57 108.67 138.50 109.50 C 140.50 110.36 143.50 110.79 145.50 110.50 C 147.43 110.22 149.68 109.33 150.50 108.50 C 151.83 107.17 152.39 107.22 155.50 109.00 C 157.43 110.10 160.80 111.00 163.00 111.00 C 165.20 111.00 168.12 110.33 169.50 109.50 C 170.88 108.67 172.00 107.33 172.00 106.50 C 172.00 105.67 171.78 105.00 171.50 105.00 C 171.22 105.00 169.65 105.90 168.00 107.00 C 165.88 108.41 163.97 108.85 161.50 108.50 C 159.57 108.22 158.00 108.00 158.00 108.00 L 158.00 108.00 C 154.90 104.90 154.00 103.33 154.00 102.50 C 154.00 101.67 155.80 99.88 158.00 98.50 C 160.20 97.12 162.00 95.33 162.00 94.50 C 162.00 93.67 161.10 92.78 160.00 92.50 C 158.90 92.22 156.65 91.78 155.00 91.50 C 153.35 91.22 150.43 91.22 148.50 91.50 C 146.57 91.78 144.78 92.67 144.50 93.50 C 144.20 94.39 145.43 96.22 147.50 98.00 C 149.43 99.65 151.00 101.45 151.00 102.00 C 151.00 102.55 150.10 104.12 149.00 105.50 C 147.90 106.88 147.00 108.00 147.00 108.00 L 147.00 108.00 Z" fill-rule="evenodd"/>
	<path fill="#56618D" d="M 176.50 55.50 C 177.32 54.67 179.35 54.00 181.00 54.00 C 182.65 54.00 186.03 54.90 188.50 56.00 C 190.97 57.10 193.68 58.90 194.50 60.00 C 195.32 61.10 195.55 61.77 195.00 61.50 C 194.45 61.23 191.53 60.33 188.50 59.50 C 185.28 58.62 180.93 58.21 178.00 58.50 C 175.00 58.80 173.00 58.60 173.00 58.00 C 173.00 57.45 173.45 57.00 174.00 57.00 C 174.55 57.00 175.68 56.33 176.50 55.50 Z" fill-rule="evenodd"/>
	<path fill="#131B27" d="M 137.00 77.00 C 136.22 76.22 134.65 75.78 133.00 75.50 C 130.89 75.15 129.85 75.45 129.50 76.50 C 129.22 77.33 129.45 78.45 130.00 79.00 C 130.55 79.55 130.78 80.67 130.50 81.50 C 130.22 82.33 128.88 83.45 127.50 84.00 C 126.12 84.55 123.88 84.78 122.50 84.50 C 121.12 84.22 119.10 83.10 118.00 82.00 C 116.50 80.50 116.12 79.12 116.50 76.50 L 117.00 73.00 C 108.47 73.00 105.55 73.45 105.00 74.00 C 104.45 74.55 104.22 76.12 104.50 77.50 C 104.78 78.88 106.35 81.58 108.00 83.50 C 109.65 85.42 111.90 87.22 113.00 87.50 C 114.10 87.78 115.00 88.00 115.00 88.00 L 115.00 88.00 L 115.00 88.00 C 115.00 88.00 114.55 88.22 114.00 88.50 C 113.45 88.78 111.20 87.88 109.00 86.50 C 106.70 85.06 104.15 82.30 101.00 76.00 C 98.50 72.67 98.33 71.67 99.00 71.00 C 99.55 70.45 100.00 70.00 100.00 70.00 L 100.00 70.00 L 100.00 70.00 C 100.00 70.00 104.50 69.78 110.00 69.50 C 115.50 69.22 122.47 69.45 125.50 70.00 C 128.53 70.55 132.57 71.90 134.50 73.00 C 136.43 74.10 137.78 75.45 137.00 77.00 Z" fill-rule="evenodd"/>
	<path fill="#596580" d="M 100.00 70.00 L 100.00 70.00 C 100.00 70.00 99.55 70.45 99.00 71.00 C 98.33 71.67 98.50 72.67 101.00 76.00 L 101.00 76.00 C 101.00 76.00 100.10 74.88 99.00 73.50 C 97.90 72.12 97.22 70.78 97.50 70.50 C 97.78 70.22 98.45 70.00 100.00 70.00 Z" fill-rule="evenodd"/>
	<path fill="#111826" d="M 206.00 74.00 L 206.00 74.00 C 206.00 74.00 206.22 74.45 206.50 75.00 C 206.78 75.55 206.55 76.45 205.00 78.00 L 205.00 78.00 C 205.00 78.00 203.65 80.03 202.00 82.50 C 200.35 84.97 197.65 87.90 196.00 89.00 C 194.35 90.10 192.10 90.78 189.00 90.00 C 191.32 90.00 193.57 88.88 195.50 87.50 C 197.43 86.12 199.45 83.65 200.00 82.00 C 200.67 80.00 200.67 78.67 200.00 78.00 C 199.45 77.45 196.97 76.78 194.50 76.50 C 190.06 76.01 190.00 76.04 190.00 79.00 C 190.00 80.67 189.11 82.89 188.00 84.00 C 186.76 85.24 184.67 86.00 182.50 86.00 C 180.57 86.00 178.10 85.33 177.00 84.50 C 175.78 83.58 175.00 81.83 175.00 80.00 C 175.00 77.14 174.83 77.02 171.50 77.50 C 169.57 77.78 168.00 78.00 168.00 78.00 L 168.00 78.00 L 168.00 78.00 C 168.00 78.00 167.55 77.78 167.00 77.50 C 166.33 77.17 166.33 76.67 167.00 76.00 C 167.55 75.45 170.25 74.33 173.00 73.50 C 175.75 72.67 180.70 72.00 184.00 72.00 C 187.30 72.00 193.60 72.45 206.00 74.00 Z" fill-rule="evenodd"/>
	<path fill="#C3F0D9" d="M 137.00 77.00 L 137.00 77.00 C 137.00 77.00 137.00 77.90 137.00 79.00 C 137.00 80.17 135.33 82.25 133.00 84.00 C 130.80 85.65 127.20 87.45 125.00 88.00 C 122.80 88.55 119.65 88.78 115.00 88.00 L 115.00 88.00 C 115.00 88.00 114.10 87.78 113.00 87.50 C 111.90 87.22 109.65 85.42 108.00 83.50 C 106.35 81.58 104.78 78.88 104.50 77.50 C 104.22 76.12 104.45 74.55 105.00 74.00 C 105.55 73.45 108.47 73.00 117.00 73.00 L 116.50 76.50 C 116.12 79.12 116.50 80.50 118.00 82.00 C 119.10 83.10 121.12 84.22 122.50 84.50 C 123.88 84.78 126.12 84.55 127.50 84.00 C 128.88 83.45 130.22 82.33 130.50 81.50 C 130.78 80.67 130.55 79.55 130.00 79.00 C 129.45 78.45 129.22 77.33 129.50 76.50 C 129.85 75.45 130.89 75.15 133.00 75.50 C 134.65 75.78 136.22 76.22 137.00 77.00 Z" fill-rule="evenodd"/>
	<path fill="#C7F2DA" d="M 189.00 90.00 L 189.00 90.00 C 189.00 90.00 186.97 90.22 184.50 90.50 C 181.59 90.82 178.94 90.47 177.00 89.50 C 175.35 88.67 172.20 86.42 170.00 84.50 C 167.80 82.58 166.00 80.55 166.00 80.00 C 166.00 79.45 166.45 78.78 168.00 78.00 L 168.00 78.00 C 168.00 78.00 169.57 77.78 171.50 77.50 C 174.83 77.02 175.00 77.14 175.00 80.00 C 175.00 81.83 175.78 83.58 177.00 84.50 C 178.10 85.33 180.57 86.00 182.50 86.00 C 184.67 86.00 186.76 85.24 188.00 84.00 C 189.11 82.89 190.00 80.67 190.00 79.00 C 190.00 76.04 190.06 76.01 194.50 76.50 C 196.97 76.78 199.45 77.45 200.00 78.00 C 200.67 78.67 200.67 80.00 200.00 82.00 C 199.45 83.65 197.43 86.12 195.50 87.50 C 193.57 88.88 191.32 90.00 189.00 90.00 Z" fill-rule="evenodd"/>
	<path fill="#E78E7B" d="M 158.00 108.00 L 153.00 103.00 C 148.35 106.88 147.00 108.00 147.00 108.00 L 147.00 108.00 L 147.00 108.00 C 147.00 108.00 147.90 106.88 149.00 105.50 C 150.10 104.12 151.00 102.55 151.00 102.00 C 151.00 101.45 149.43 99.65 147.50 98.00 C 145.43 96.22 144.20 94.39 144.50 93.50 C 144.78 92.67 146.57 91.78 148.50 91.50 C 150.43 91.22 153.35 91.22 155.00 91.50 C 156.65 91.78 158.90 92.22 160.00 92.50 C 161.10 92.78 162.00 93.67 162.00 94.50 C 162.00 95.33 160.20 97.12 158.00 98.50 C 155.80 99.88 154.00 101.67 154.00 102.50 C 154.00 103.33 154.90 104.90 158.00 108.00 Z" fill-rule="evenodd"/>
	<path fill="#111216" d="M 158.00 108.00 L 158.00 108.00 C 158.00 108.00 159.57 108.22 161.50 108.50 C 163.97 108.85 165.88 108.41 168.00 107.00 C 169.65 105.90 171.22 105.00 171.50 105.00 C 171.78 105.00 172.00 105.67 172.00 106.50 C 172.00 107.33 170.88 108.67 169.50 109.50 C 168.12 110.33 165.20 111.00 163.00 111.00 C 160.80 111.00 157.43 110.10 155.50 109.00 C 152.39 107.22 151.83 107.17 150.50 108.50 C 149.68 109.33 147.43 110.22 145.50 110.50 C 143.50 110.79 140.50 110.36 138.50 109.50 C 136.57 108.67 134.78 107.33 134.50 106.50 C 134.22 105.67 134.22 104.78 134.50 104.50 C 134.78 104.22 135.90 104.90 137.00 106.00 C 138.33 107.33 140.33 108.00 147.00 108.00 L 147.00 108.00 C 147.00 108.00 148.35 106.88 153.00 103.00 L 158.00 108.00 Z" fill-rule="evenodd"/>
	<path fill="#3C457C" d="M 127.00 126.00 L 127.00 126.00 C 127.00 126.00 127.22 126.00 127.50 126.00 C 127.78 126.00 128.68 126.22 131.00 127.00 C 132.55 129.32 133.22 131.57 133.50 133.50 C 133.78 135.43 134.00 137.00 134.00 137.00 L 134.00 137.00 L 134.00 137.00 C 134.00 137.00 132.65 136.32 131.00 135.50 C 129.35 134.68 127.78 133.55 127.50 133.00 C 127.22 132.45 127.00 130.65 127.00 126.00 Z" fill-rule="evenodd"/>
	<path fill="#838EBD" d="M 134.00 126.00 L 134.00 126.00 C 134.00 126.00 136.47 126.67 139.50 127.50 C 142.53 128.32 147.03 129.22 149.50 129.50 C 151.97 129.78 156.93 129.55 167.00 128.00 L 167.00 128.00 C 167.00 128.00 167.00 129.12 167.00 130.50 C 167.00 131.88 166.32 133.45 165.50 134.00 C 164.68 134.55 162.65 135.68 158.00 138.00 C 157.22 138.00 156.55 138.68 156.00 139.50 C 155.45 140.32 155.00 141.00 155.00 141.00 L 155.00 141.00 L 155.00 141.00 C 155.00 141.00 154.78 141.00 154.00 141.00 C 154.78 140.22 153.65 139.55 152.00 139.00 C 150.35 138.45 146.75 138.22 144.00 138.50 C 141.25 138.78 139.00 139.00 139.00 139.00 L 139.00 139.00 L 139.00 139.00 C 139.00 139.00 138.10 138.55 137.00 138.00 C 135.90 137.45 134.78 137.00 134.00 137.00 L 134.00 137.00 C 134.00 137.00 133.78 135.43 133.50 133.50 C 133.22 131.57 132.55 129.32 131.00 127.00 L 131.00 127.00 C 131.00 127.00 131.45 127.00 132.00 127.00 C 132.55 127.00 133.22 126.78 134.00 126.00 Z" fill-rule="evenodd"/>
	<path fill="#6866A4" d="M 173.00 127.00 L 173.00 127.00 C 173.00 127.00 173.00 127.90 173.00 129.00 C 173.00 130.10 172.55 131.00 172.00 131.00 C 171.45 131.00 170.55 130.32 169.00 128.00 L 169.00 128.00 C 169.00 128.00 169.00 127.78 169.00 127.50 C 169.00 127.22 169.90 127.00 173.00 127.00 Z" fill-rule="evenodd"/>
	<path fill="#5826A2" d="M 112.00 134.50 C 112.71 132.00 113.57 131.00 115.00 131.00 C 116.10 131.00 121.28 133.03 126.50 135.50 C 131.72 137.97 136.45 140.68 137.00 141.50 C 137.55 142.32 137.78 143.90 137.50 145.00 C 137.04 146.82 136.39 146.96 130.00 146.50 C 124.22 146.09 123.00 146.26 123.00 147.50 C 123.00 148.32 123.67 149.22 124.50 149.50 C 125.33 149.78 128.47 150.22 131.50 150.50 C 136.83 150.98 137.00 151.09 137.00 154.00 C 137.00 156.59 136.39 157.27 132.50 159.00 C 130.03 160.10 126.42 161.68 124.50 162.50 C 122.58 163.32 119.65 164.00 118.00 164.00 C 115.56 164.00 114.81 163.44 114.00 161.00 C 113.45 159.35 112.55 153.50 112.00 148.00 C 111.33 141.33 111.33 136.83 112.00 134.50 Z" fill-rule="evenodd"/>
	<path fill="#5724A0" d="M 155.00 141.00 L 155.00 141.00 C 155.00 141.00 155.45 140.32 156.00 139.50 C 156.55 138.68 157.22 138.00 158.00 138.00 L 158.00 138.00 C 158.00 138.00 158.90 138.22 160.00 138.50 C 161.14 138.79 163.71 137.93 166.00 136.50 C 168.20 135.12 172.03 133.78 174.50 133.50 C 176.97 133.22 179.68 133.45 180.50 134.00 C 181.58 134.72 182.00 136.83 182.00 141.50 C 182.00 145.07 181.55 150.93 181.00 154.50 C 180.45 158.07 179.32 162.12 178.50 163.50 C 177.68 164.88 176.10 166.00 175.00 166.00 C 173.90 166.00 170.75 164.88 168.00 163.50 C 165.25 162.12 162.32 160.55 161.50 160.00 C 160.68 159.45 159.10 158.78 158.00 158.50 C 156.48 158.12 156.12 157.40 156.50 155.50 C 156.78 154.12 157.22 152.78 157.50 152.50 C 157.78 152.22 160.47 151.55 163.50 151.00 C 166.53 150.45 169.45 149.78 170.00 149.50 C 170.59 149.20 170.39 148.39 169.50 147.50 C 168.39 146.39 166.57 146.13 162.50 146.50 C 159.17 146.80 157.00 146.61 157.00 146.00 C 157.00 145.45 156.55 144.10 155.00 141.00 Z" fill-rule="evenodd"/>
	<path fill="#A5A9D3" d="M 154.00 141.00 L 154.00 141.00 C 154.00 141.00 150.62 140.78 146.50 140.50 C 142.38 140.22 139.00 139.78 139.00 139.00 L 139.00 139.00 C 139.00 139.00 141.25 138.78 144.00 138.50 C 146.75 138.22 150.35 138.45 152.00 139.00 C 153.65 139.55 154.78 140.22 154.00 141.00 Z" fill-rule="evenodd"/>
	<path fill="#531F98" d="M 140.50 144.00 C 140.79 143.41 143.48 143.21 153.00 144.00 L 153.50 148.00 C 153.78 150.20 153.78 153.12 153.50 154.50 C 153.11 156.46 152.25 157.11 149.50 157.50 C 147.57 157.78 144.88 157.78 143.50 157.50 C 141.24 157.05 140.95 156.42 140.50 151.00 C 140.22 147.70 140.22 144.55 140.50 144.00 Z" fill-rule="evenodd"/>
	<path fill="#B0B7D5" d="M 220.00 296.00 C 213.80 291.35 211.32 288.88 210.50 287.50 C 209.68 286.12 207.65 281.85 206.00 278.00 C 204.35 274.15 201.20 266.27 199.00 260.50 C 196.80 254.72 192.30 241.90 189.00 232.00 C 185.70 222.10 181.88 209.28 180.50 203.50 C 179.12 197.72 177.78 193.22 177.50 193.50 C 177.22 193.78 177.45 197.60 178.00 202.00 C 178.55 206.40 181.03 218.10 183.50 228.00 C 185.97 237.90 190.93 255.00 194.50 266.00 C 198.91 279.56 200.84 286.97 200.50 289.00 C 200.22 290.65 200.00 292.00 200.00 292.00 L 200.00 292.00 L 200.00 292.00 C 200.00 292.00 199.32 292.90 198.50 294.00 C 197.68 295.10 194.97 296.68 192.50 297.50 C 190.03 298.32 185.07 299.23 175.00 300.00 C 164.15 297.68 157.85 295.88 154.00 294.50 C 150.15 293.12 143.40 290.20 139.00 288.00 C 134.60 285.80 130.10 283.10 129.00 282.00 C 127.24 280.24 127.12 279.45 128.00 275.50 C 128.55 273.02 128.78 270.55 128.50 270.00 C 128.22 269.45 123.72 275.30 118.50 283.00 C 113.28 290.70 109.00 297.00 109.00 297.00 L 109.00 297.00 L 109.00 297.00 C 109.00 297.00 106.97 299.70 104.50 303.00 C 102.03 306.30 97.08 311.93 93.50 315.50 C 89.31 319.69 84.51 323.24 80.00 325.50 C 76.15 327.43 71.88 329.00 70.50 329.00 C 69.12 329.00 67.78 328.55 67.50 328.00 C 67.22 327.45 67.67 325.65 68.50 324.00 C 69.83 321.33 69.83 321.11 68.50 322.00 C 67.67 322.55 66.33 324.57 65.50 326.50 C 64.26 329.39 63.48 330.00 61.00 330.00 C 59.35 330.00 57.77 329.77 57.50 329.50 C 57.23 329.23 57.45 327.65 58.00 326.00 C 58.55 324.35 59.23 322.32 59.50 321.50 C 59.77 320.68 59.55 320.23 59.00 320.50 C 58.45 320.77 57.10 323.02 56.00 325.50 C 54.24 329.45 53.76 329.88 52.00 329.00 C 50.90 328.45 49.77 326.88 49.50 325.50 C 49.23 324.12 49.45 322.10 50.00 321.00 C 50.55 319.90 55.50 315.85 61.00 312.00 C 66.50 308.15 72.58 302.98 74.50 300.50 C 76.42 298.02 81.38 288.35 93.00 262.00 C 98.56 250.88 102.26 245.74 105.50 242.50 L 111.00 237.00 C 129.10 237.00 131.52 237.47 146.00 242.00 C 154.80 244.75 165.82 248.57 170.50 250.50 C 175.18 252.43 179.90 254.22 181.00 254.50 C 182.10 254.78 180.97 253.88 178.50 252.50 C 176.03 251.12 174.00 250.00 174.00 250.00 L 174.00 250.00 C 174.78 248.45 173.43 241.03 171.50 232.50 C 168.35 218.57 167.90 214.62 167.00 193.50 C 166.45 180.57 165.78 168.88 165.50 167.50 C 165.22 166.12 165.00 165.00 165.00 165.00 L 165.00 165.00 L 165.00 165.00 C 165.00 165.00 166.57 165.68 168.50 166.50 C 170.43 167.32 173.80 168.00 176.00 168.00 C 179.33 168.00 180.17 167.58 181.00 165.50 C 181.55 164.12 182.45 159.85 183.00 156.00 C 183.55 152.15 184.45 149.00 185.00 149.00 C 185.55 149.00 187.35 150.57 189.00 152.50 C 190.65 154.43 193.35 158.70 195.00 162.00 C 196.65 165.30 199.57 172.72 201.50 178.50 C 203.43 184.28 206.35 194.40 208.00 201.00 C 209.65 207.60 213.03 223.12 215.50 235.50 C 217.97 247.88 220.68 262.50 223.00 278.00 L 228.50 278.50 C 231.53 278.77 236.93 279.90 240.50 281.00 C 244.07 282.10 248.12 284.12 249.50 285.50 C 250.88 286.88 252.00 289.12 252.00 290.50 C 252.00 291.88 251.78 293.68 251.50 294.50 C 251.22 295.32 250.32 296.00 249.50 296.00 C 248.68 296.00 247.78 294.88 247.50 293.50 C 247.22 292.12 246.10 289.88 245.00 288.50 C 243.90 287.12 242.32 286.00 241.50 286.00 C 240.39 286.00 240.65 286.78 242.50 289.00 C 244.22 291.06 244.84 292.78 244.50 294.50 C 244.10 296.50 243.40 297.00 241.00 297.00 C 239.22 297.00 237.80 296.39 237.50 295.50 C 237.22 294.68 235.88 292.65 234.50 291.00 C 233.12 289.35 231.55 288.00 231.00 288.00 C 230.45 288.00 231.12 289.57 232.50 291.50 C 233.88 293.43 234.78 295.68 234.50 296.50 C 234.22 297.32 233.32 298.00 232.50 298.00 C 231.68 298.00 228.53 297.55 220.00 296.00 Z" fill-rule="evenodd"/>
	<path fill="#F6F6F1" d="M 165.00 165.00 L 165.00 165.00 C 165.00 165.00 165.22 166.12 165.50 167.50 C 165.78 168.88 166.45 180.57 167.00 193.50 C 167.90 214.62 168.35 218.57 171.50 232.50 C 173.43 241.03 174.78 248.45 174.00 250.00 C 161.60 243.80 153.72 240.65 148.50 239.00 C 143.28 237.35 139.00 236.00 139.00 236.00 L 139.00 236.00 C 137.29 212.90 136.13 205.97 134.00 198.50 C 132.11 191.90 130.81 184.66 130.50 179.00 C 130.13 172.42 130.40 168.92 131.50 166.00 C 132.32 163.80 133.00 162.00 133.00 162.00 L 133.00 162.00 L 133.00 162.00 C 133.00 162.00 133.90 161.55 135.00 161.00 C 136.10 160.45 141.05 160.00 146.00 160.00 C 153.60 160.00 155.78 160.39 165.00 165.00 Z" fill-rule="evenodd"/>
	<path fill="#5D689A" d="M 127.00 221.00 C 126.22 221.00 126.00 221.00 126.00 221.00 L 126.00 221.00 C 126.00 217.90 124.20 214.97 122.00 212.50 C 119.80 210.03 116.20 207.10 114.00 206.00 C 111.80 204.90 107.53 203.78 104.50 203.50 C 101.47 203.22 99.00 203.00 99.00 203.00 L 99.00 203.00 L 99.00 203.00 C 99.00 203.00 100.12 197.82 101.50 191.50 C 102.88 185.18 104.45 178.20 105.00 176.00 C 105.55 173.80 106.67 169.53 107.50 166.50 C 108.33 163.47 109.45 161.00 110.00 161.00 C 110.55 161.00 111.00 161.68 111.00 162.50 C 111.00 163.32 111.67 164.68 112.50 165.50 C 113.33 166.32 115.12 167.00 116.50 167.00 C 118.94 167.00 119.01 167.20 119.50 176.00 C 119.88 182.90 120.93 187.80 124.00 197.00 C 127.42 207.27 127.93 209.87 127.00 221.00 Z" fill-rule="evenodd"/>
	<path fill="#B3BAD8" d="M 133.00 162.00 L 133.00 162.00 C 133.00 162.00 132.32 163.80 131.50 166.00 C 130.40 168.92 130.13 172.42 130.50 179.00 C 130.81 184.66 132.11 191.90 134.00 198.50 C 136.13 205.97 137.29 212.90 139.00 236.00 C 135.12 234.45 133.78 233.55 133.50 233.00 C 133.22 232.45 133.00 232.00 133.00 232.00 L 133.00 232.00 L 133.00 232.00 C 133.00 232.00 133.22 228.85 133.50 225.00 C 133.84 220.24 133.52 216.56 132.50 213.50 C 131.68 211.03 128.97 203.38 126.50 196.50 C 122.50 185.39 122.00 183.06 122.00 175.50 C 122.00 170.82 122.45 166.55 123.00 166.00 C 123.55 165.45 126.03 164.32 133.00 162.00 Z" fill-rule="evenodd"/>
	<path fill="#596593" d="M 220.00 296.00 L 220.00 296.00 C 220.00 296.00 219.10 296.00 218.00 296.00 C 216.90 296.00 215.10 295.55 214.00 295.00 C 212.90 294.45 210.20 292.43 204.00 287.00 L 200.00 292.00 L 200.00 292.00 C 200.00 292.00 200.22 290.65 200.50 289.00 C 200.84 286.97 198.91 279.56 194.50 266.00 C 190.93 255.00 185.97 237.90 183.50 228.00 C 181.03 218.10 178.55 206.40 178.00 202.00 C 177.45 197.60 177.22 193.78 177.50 193.50 C 177.78 193.22 179.12 197.72 180.50 203.50 C 181.88 209.28 185.70 222.10 189.00 232.00 C 192.30 241.90 196.80 254.72 199.00 260.50 C 201.20 266.27 204.35 274.15 206.00 278.00 C 207.65 281.85 209.68 286.12 210.50 287.50 C 211.32 288.88 213.80 291.35 220.00 296.00 Z" fill-rule="evenodd"/>
	<path fill="#AEB6D5" d="M 99.00 203.00 L 99.00 203.00 C 99.00 203.00 101.47 203.22 104.50 203.50 C 107.53 203.78 111.80 204.90 114.00 206.00 C 116.20 207.10 119.80 210.03 122.00 212.50 C 124.20 214.97 126.00 217.90 126.00 221.00 C 122.90 221.78 115.25 221.10 107.00 220.00 C 98.75 218.90 91.10 218.00 90.00 218.00 C 88.76 218.00 87.24 219.33 86.00 221.50 C 84.90 223.43 84.00 225.00 84.00 225.00 L 84.00 225.00 C 80.12 229.65 77.65 231.68 76.00 232.50 C 74.35 233.32 72.33 234.00 71.50 234.00 C 70.67 234.00 69.78 232.88 69.50 231.50 C 69.22 230.12 69.67 227.20 70.50 225.00 C 71.38 222.67 71.58 221.00 71.00 221.00 C 70.45 221.00 69.10 222.80 68.00 225.00 C 66.90 227.20 66.00 230.12 66.00 231.50 C 66.00 233.61 65.53 234.00 63.00 234.00 C 60.60 234.00 59.90 233.50 59.50 231.50 C 59.23 230.12 59.45 227.65 60.00 226.00 C 60.55 224.35 61.00 222.55 61.00 222.00 C 61.00 221.33 60.50 221.33 59.50 222.00 C 58.67 222.55 57.55 224.35 57.00 226.00 C 56.45 227.65 55.55 229.00 55.00 229.00 C 54.45 229.00 54.00 229.00 54.00 229.00 L 54.00 229.00 L 54.00 229.00 C 54.00 229.00 54.00 227.20 54.00 225.00 C 54.00 222.80 54.90 219.43 56.00 217.50 C 57.10 215.57 60.25 212.65 63.00 211.00 C 65.75 209.35 71.60 207.10 76.00 206.00 C 80.40 204.90 87.38 203.78 99.00 203.00 Z" fill-rule="evenodd"/>
	<path fill="#BBC5E0" d="M 130.00 232.00 C 127.67 232.00 124.75 231.10 122.00 230.00 C 119.25 228.90 117.22 227.55 117.50 227.00 C 117.78 226.45 119.80 225.78 122.00 225.50 C 124.20 225.22 126.45 224.32 127.00 223.50 C 127.55 222.68 128.00 222.00 128.00 222.00 L 128.00 222.00 L 128.00 222.00 C 128.00 222.00 128.22 220.88 128.50 219.50 C 128.78 218.12 129.45 216.78 130.00 216.50 C 130.55 216.22 131.22 217.12 131.50 218.50 C 131.78 219.88 131.55 223.47 130.00 232.00 Z" fill-rule="evenodd"/>
	<path fill="#485381" d="M 126.00 221.00 L 126.00 221.00 C 126.00 221.00 126.22 221.00 127.00 221.00 L 127.00 221.00 C 127.00 221.00 126.78 221.45 126.50 222.00 C 126.22 222.55 126.22 223.00 126.50 223.00 C 126.78 223.00 127.22 222.78 128.00 222.00 L 128.00 222.00 C 128.00 222.00 127.55 222.68 127.00 223.50 C 126.45 224.32 124.20 225.22 122.00 225.50 C 119.80 225.78 117.78 226.45 117.50 227.00 C 117.22 227.55 119.25 228.90 122.00 230.00 C 124.75 231.10 127.67 232.00 130.00 232.00 L 130.00 232.00 C 130.00 232.00 130.00 232.22 130.00 232.50 C 130.00 232.78 130.68 232.78 133.00 232.00 L 133.00 232.00 C 133.00 232.00 133.22 232.45 133.50 233.00 C 133.78 233.55 135.12 234.45 139.00 236.00 L 139.00 236.00 C 139.00 236.00 143.28 237.35 148.50 239.00 C 153.72 240.65 161.60 243.80 174.00 250.00 L 174.00 250.00 C 174.00 250.00 176.03 251.12 178.50 252.50 C 180.97 253.88 182.10 254.78 181.00 254.50 C 179.90 254.22 175.18 252.43 170.50 250.50 C 165.82 248.57 154.80 244.75 146.00 242.00 C 131.52 237.47 129.10 237.00 111.00 237.00 L 105.50 242.50 C 102.26 245.74 98.56 250.88 93.00 262.00 L 93.00 262.00 C 93.00 262.00 91.88 262.23 90.50 262.50 C 88.21 262.96 88.00 262.70 88.00 259.50 C 88.00 257.57 88.45 255.55 90.00 254.00 C 90.78 255.55 91.45 256.00 92.00 256.00 C 92.55 256.00 94.80 252.85 97.00 249.00 C 99.20 245.15 103.03 239.97 105.50 237.50 L 110.00 233.00 C 106.90 229.12 103.75 226.88 101.00 225.50 C 98.25 224.12 94.65 223.00 93.00 223.00 C 91.35 223.00 89.55 223.45 89.00 224.00 C 88.45 224.55 88.00 225.00 88.00 225.00 L 88.00 225.00 C 86.45 224.22 85.55 224.22 85.00 224.50 C 84.45 224.78 84.00 225.00 84.00 225.00 L 84.00 225.00 L 84.00 225.00 C 84.00 225.00 84.90 223.43 86.00 221.50 C 87.24 219.33 88.76 218.00 90.00 218.00 C 91.10 218.00 98.75 218.90 107.00 220.00 C 115.25 221.10 122.90 221.78 126.00 221.00 Z" fill-rule="evenodd"/>
	<path fill="#303963" d="M 84.00 225.00 L 84.00 225.00 C 84.00 225.00 84.45 224.78 85.00 224.50 C 85.55 224.22 86.45 224.22 88.00 225.00 C 82.56 231.21 78.54 234.12 75.50 235.50 C 71.44 237.35 68.30 238.00 63.50 238.00 C 59.92 238.00 57.00 238.00 57.00 238.00 L 57.00 238.00 L 57.00 238.00 C 57.00 238.00 56.77 236.43 56.50 234.50 C 56.23 232.57 55.55 230.55 54.00 229.00 L 54.00 229.00 C 54.00 229.00 54.45 229.00 55.00 229.00 C 55.55 229.00 56.45 227.65 57.00 226.00 C 57.55 224.35 58.67 222.55 59.50 222.00 C 60.50 221.33 61.00 221.33 61.00 222.00 C 61.00 222.55 60.55 224.35 60.00 226.00 C 59.45 227.65 59.23 230.12 59.50 231.50 C 59.90 233.50 60.60 234.00 63.00 234.00 C 65.53 234.00 66.00 233.61 66.00 231.50 C 66.00 230.12 66.90 227.20 68.00 225.00 C 69.10 222.80 70.45 221.00 71.00 221.00 C 71.58 221.00 71.38 222.67 70.50 225.00 C 69.67 227.20 69.22 230.12 69.50 231.50 C 69.78 232.88 70.67 234.00 71.50 234.00 C 72.33 234.00 74.35 233.32 76.00 232.50 C 77.65 231.68 80.12 229.65 84.00 225.00 Z" fill-rule="evenodd"/>
	<path fill="#AFB6D5" d="M 90.00 254.00 L 90.00 254.00 C 90.00 254.00 89.55 253.10 89.00 252.00 C 88.20 250.40 87.90 250.30 87.50 251.50 C 87.22 252.32 84.30 259.98 81.00 268.50 C 77.70 277.02 72.53 289.18 69.50 295.50 C 64.13 306.73 63.82 307.13 56.50 312.50 C 52.38 315.52 48.10 319.12 47.00 320.50 C 45.90 321.88 44.55 322.77 44.00 322.50 C 43.45 322.23 43.23 320.88 43.50 319.50 C 43.77 318.12 43.77 317.00 43.50 317.00 C 43.23 317.00 42.10 318.80 41.00 321.00 C 39.44 324.11 38.56 324.89 37.00 324.50 C 35.42 324.10 35.00 323.17 35.00 316.00 L 32.50 318.50 C 31.12 319.88 30.00 321.68 30.00 322.50 C 30.00 323.32 29.77 324.00 29.50 324.00 C 29.23 324.00 28.32 323.77 27.50 323.50 C 26.68 323.23 26.00 321.88 26.00 320.50 C 26.00 319.12 27.57 315.98 29.50 313.50 C 31.43 311.02 35.70 306.98 39.00 304.50 C 43.91 300.82 45.09 299.36 45.50 296.50 C 45.77 294.57 47.58 284.23 49.50 273.50 C 51.42 262.77 53.90 250.40 57.00 238.00 L 57.00 238.00 C 57.00 238.00 59.92 238.00 63.50 238.00 C 68.30 238.00 71.44 237.35 75.50 235.50 C 78.54 234.12 82.56 231.21 88.00 225.00 L 88.00 225.00 C 88.00 225.00 88.45 224.55 89.00 224.00 C 89.55 223.45 91.35 223.00 93.00 223.00 C 94.65 223.00 98.25 224.12 101.00 225.50 C 103.75 226.88 106.90 229.12 110.00 233.00 L 105.50 237.50 C 103.03 239.97 99.20 245.15 97.00 249.00 C 94.80 252.85 92.55 256.00 92.00 256.00 C 91.45 256.00 90.78 255.55 90.00 254.00 Z" fill-rule="evenodd"/>
	<path fill="#E8EAF4" d="M 82.00 274.00 C 85.08 266.29 86.23 264.34 87.00 265.50 C 87.74 266.61 86.45 270.35 82.00 280.00 C 78.70 287.15 75.55 293.45 75.00 294.00 C 74.45 294.55 73.78 294.77 73.50 294.50 C 73.22 294.23 74.12 291.75 75.50 289.00 C 76.88 286.25 79.80 279.50 82.00 274.00 Z" fill-rule="evenodd"/>
	<path fill="#5D6A9A" d="M 175.00 300.00 L 175.00 300.00 C 175.00 300.00 168.93 300.23 161.50 300.50 C 154.07 300.77 142.60 300.55 136.00 300.00 C 129.40 299.45 121.08 298.32 117.50 297.50 C 113.92 296.68 110.55 296.23 109.00 297.00 L 109.00 297.00 C 109.00 297.00 113.28 290.70 118.50 283.00 C 123.72 275.30 128.22 269.45 128.50 270.00 C 128.78 270.55 128.55 273.02 128.00 275.50 C 127.12 279.45 127.24 280.24 129.00 282.00 C 130.10 283.10 134.60 285.80 139.00 288.00 C 143.40 290.20 150.15 293.12 154.00 294.50 C 157.85 295.88 164.15 297.68 175.00 300.00 Z" fill-rule="evenodd"/>
	<path fill="#FFFFFF02" d="M 102.00 352.00 C 102.55 352.00 103.00 352.23 103.00 352.50 C 103.00 352.77 102.55 352.77 102.00 352.50 C 101.33 352.17 101.33 352.00 102.00 352.00 Z" fill-rule="evenodd"/>
</svg>
